<?xml version="1.0" encoding="UTF-8"?>
<svg enable-background="new 0 0 512 512" version="1.1" viewBox="0 0 512 512" xml:space="preserve" xmlns="http://www.w3.org/2000/svg">
<style type="text/css">
	.st0{fill-rule:evenodd;clip-rule:evenodd;fill:#4B4F55;}
	.stuno1{fill-rule:evenodd;clip-rule:evenodd;fill:#E3E7EB;}
	.st2{fill:#FFFFFF;}
	.st3{fill-rule:evenodd;clip-rule:evenodd;fill:#FFFFFF;}
	.st4{fill-rule:evenodd;clip-rule:evenodd;fill:none;}
</style>
		<path class="st0" d="m407.01 426.66c-4.18 0-7.57-3.46-7.57-7.71s3.39-7.71 7.57-7.71h35.1c4.19 0 7.8 3.45 7.8 7.71s-3.16 7.71-7.34 7.71v-7.72l-0.24 7.72h-35.32zm-105.3 0h-35.1c-4.18 0-7.57-3.46-7.57-7.71s3.39-7.71 7.57-7.71h35.1c4.18 0 7.57 3.46 7.57 7.71s-3.39 7.71-7.57 7.71zm-70.2 0h-35.1c-4.19 0-7.57-3.46-7.57-7.71s3.38-7.71 7.57-7.71h35.1c4.18 0 7.57 3.46 7.57 7.71s-3.39 7.71-7.57 7.71zm-70.2 0h-35.1c-4.18 0-7.57-3.46-7.57-7.71s3.39-7.71 7.57-7.71h35.1c4.18 0 7.57 3.46 7.57 7.71s-3.39 7.71-7.57 7.71zm-70.2 0h-21.21c-5.57 0-11.02-0.97-16.19-2.89-3.94-1.45-5.96-5.88-4.53-9.88 1.42-4.01 5.77-6.06 9.7-4.62 3.52 1.31 7.23 1.97 11.02 1.97h21.21c4.19 0 7.57 3.46 7.57 7.71s-3.38 7.71-7.57 7.71zm382.01-15.1c-1.67 0-3.36-0.56-4.76-1.71-3.25-2.68-3.76-7.54-1.12-10.84 4.68-5.91 7.16-13.05 7.16-20.67v-8.16c0-4.26 3.39-7.71 7.57-7.71s7.57 3.46 7.57 7.71v8.16c0 11.03-3.74 21.82-10.53 30.37-1.5 1.88-3.69 2.85-5.89 2.85zm-440.79-11.87c-3.12 0-6.03-1.96-7.13-5.13-1.83-5.2-2.74-10.66-2.74-16.23v-21.84c0-4.26 3.39-7.71 7.57-7.71s7.57 3.46 7.57 7.71v21.84c0 3.8 0.62 7.52 1.87 11.06 1.4 4.01-0.66 8.42-4.6 9.85-0.83 0.31-1.69 0.45-2.54 0.45zm449.64-57.56c-4.18 0-7.57-3.46-7.57-7.71v-35.77c0-4.26 3.39-7.71 7.57-7.71s7.57 3.46 7.57 7.71v35.77c0 4.25-3.39 7.71-7.57 7.71zm-451.94-13.68c-4.18 0-7.57-3.46-7.57-7.71v-35.77c0-4.26 3.39-7.71 7.57-7.71s7.57 3.46 7.57 7.71v35.77c0 4.25-3.4 7.71-7.57 7.71zm451.94-57.84c-4.18 0-7.57-3.46-7.57-7.71v-35.77c0-4.26 3.39-7.71 7.57-7.71s7.57 3.46 7.57 7.71v35.77c0 4.25-3.39 7.71-7.57 7.71zm-451.94-13.68c-4.18 0-7.57-3.46-7.57-7.71v-35.77c0-4.26 3.39-7.71 7.57-7.71s7.57 3.46 7.57 7.71v35.77c0 4.25-3.4 7.71-7.57 7.71zm449.56-57.56c-3.1 0-5.99-1.95-7.12-5.08-3.29-9.25-10.41-16.47-19.52-19.77-3.94-1.43-5.99-5.84-4.59-9.85s5.74-6.11 9.67-4.68c13.37 4.86 23.82 15.44 28.67 29.04 1.42 4-0.61 8.42-4.53 9.87-0.86 0.32-1.73 0.47-2.58 0.47zm-440.58-11.83c-1.68 0-3.38-0.57-4.78-1.75-3.24-2.69-3.71-7.55-1.07-10.85 8.99-11.2 22.28-17.67 36.46-17.75 4.38 0.05 7.6 3.41 7.61 7.67 0.03 4.26-3.35 7.73-7.52 7.76-9.65 0.05-18.71 4.46-24.84 12.09-1.48 1.86-3.67 2.83-5.86 2.83zm381.65-14.92h-35.1c-4.18 0-7.57-3.46-7.57-7.71 0-4.26 3.39-7.71 7.57-7.71h35.1c4.18 0 7.57 3.46 7.57 7.71s-3.39 7.71-7.57 7.71zm-140.39 0h-35.1c-4.18 0-7.57-3.46-7.57-7.71 0-4.26 3.39-7.71 7.57-7.71h35.1c4.18 0 7.57 3.46 7.57 7.71s-3.4 7.71-7.57 7.71zm-70.2 0h-35.1c-4.18 0-7.57-3.46-7.57-7.71 0-4.26 3.39-7.71 7.57-7.71h35.1c4.18 0 7.57 3.46 7.57 7.71s-3.4 7.71-7.57 7.71zm-70.2 0h-35.1c-4.19 0-7.58-3.46-7.58-7.71 0-4.26 3.39-7.71 7.58-7.71h35.1c4.18 0 7.57 3.46 7.57 7.71s-3.4 7.71-7.57 7.71z"/>
		<rect class="stuno1" x="131.77" y="162.86" width="96.56" height="255.21"/>
		<rect class="st2" x="246.09" y="58.77" width="119.22" height="89.82"/>
		<line class="st3" x1="291" x2="320.4" y1="103.68" y2="103.68"/>
		<line class="st3" x1="291" x2="320.4" y1="229.43" y2="229.43"/>
		<line class="st3" x1="291" x2="347.35" y1="166.56" y2="166.56"/>
		<line class="st3" x1="291" x2="347.35" y1="292.31" y2="292.31"/>
		<line class="st3" x1="291" x2="320.4" y1="355.19" y2="355.19"/>
		<line class="st3" x1="291" x2="347.35" y1="418.06" y2="418.06"/>
		<path class="st0" d="m370.32 40.42h-57.98c-16.21 0-29.4 13.42-29.4 29.92v371.3c0 16.51 13.19 29.93 29.4 29.93h53.02c18.95 0 34.35-15.69 34.35-34.98v-366.25c0.01-16.49-13.18-29.92-29.39-29.92zm14.48 396.18c0 10.91-8.72 19.78-19.44 19.78h-53.02c-7.99 0-14.48-6.61-14.48-14.74v-16.86h47.6c4.12 0 7.46-3.4 7.46-7.59 0-4.2-3.34-7.59-7.46-7.59h-47.6v-47.34h21.27c4.12 0 7.46-3.4 7.46-7.59 0-4.2-3.34-7.59-7.46-7.59h-21.27v-47.34h47.6c4.12 0 7.46-3.4 7.46-7.59 0-4.2-3.34-7.59-7.46-7.59h-47.6v-47.34h21.27c4.12 0 7.46-3.4 7.46-7.59 0-4.2-3.34-7.59-7.46-7.59h-21.27v-47.34h47.6c4.12 0 7.46-3.4 7.46-7.59 0-4.2-3.34-7.59-7.46-7.59h-47.6v-47.34h21.27c4.12 0 7.46-3.4 7.46-7.59 0-4.2-3.34-7.59-7.46-7.59h-21.27v-26.66c0-8.13 6.49-14.74 14.48-14.74h57.98c7.99 0 14.48 6.61 14.48 14.74v366.26z"/>
		<line class="st4" x1="138.51" x2="221.6" y1="162.86" y2="162.86"/>
		<line class="st3" x1="131.77" x2="228.33" y1="418.06" y2="418.06"/>
		<line class="st3" x1="180.05" x2="180.05" y1="162.86" y2="412.08"/>
		<line class="st3" x1="180.05" x2="180.05" y1="104.31" y2="81.22"/>
		<path class="st0" d="m222.29 152.1l-27.6-42.2c-2.95-4.51-7.29-7.66-12.17-9.32v-16.67c0-4.17-3.3-7.56-7.36-7.56s-7.36 3.39-7.36 7.56v16.67c-4.88 1.66-9.22 4.81-12.18 9.32l-27.6 42.2c-4.42 6.77-6.75 14.64-6.75 22.79v256.81c0 21.99 17.41 39.88 38.83 39.88h30.13c21.41 0 38.83-17.89 38.83-39.88v-256.81c-0.01-8.15-2.34-16.02-6.77-22.79zm-86.31 22.79c0-0.87 0.1-1.73 0.18-2.59h31.64v237.57h-31.82v-234.98zm46.54-2.59h31.63c0.09 0.86 0.19 1.72 0.19 2.59v234.98h-31.82v-237.57zm-14.68-53.97c1.66-2.54 4.33-4 7.32-4 2.98 0 5.65 1.46 7.32 4l25.4 38.85h-65.44l25.4-38.85zm22.38 338.13h-30.13c-13.3 0-24.11-11.11-24.11-24.76v-6.71h78.35v6.71c0 13.65-10.81 24.76-24.11 24.76z"/>
</svg>
