<?xml version="1.0" encoding="UTF-8"?>
<svg enable-background="new 0 0 512 512" version="1.1" viewBox="0 0 512 512" xml:space="preserve" xmlns="http://www.w3.org/2000/svg">
<style type="text/css">
	.stcero1{opacity:0.3;fill-rule:evenodd;clip-rule:evenodd;fill:#4B4F55;}
	.stuno1{fill-rule:evenodd;clip-rule:evenodd;fill:#E3E7EB;}
	.st2{fill-rule:evenodd;clip-rule:evenodd;fill:#4B4F55;}
	.st3{fill-rule:evenodd;clip-rule:evenodd;fill:#FFFFFF;}
</style>
		<path class="stcero1" d="m116.76 312.03c-0.69 0-1.4-0.1-2.1-0.32l-31.88-9.98c-3.74-1.17-5.83-5.18-4.66-8.95 1.16-3.76 5.12-5.87 8.87-4.71l31.88 9.98c3.74 1.17 5.83 5.18 4.66 8.95-0.94 3.06-3.74 5.03-6.77 5.03m-63.75-19.95c-0.69 0-1.4-0.1-2.1-0.32l-21.33-6.68c-3.74-1.17-5.83-5.18-4.66-8.95 1.16-3.76 5.12-5.87 8.87-4.71l21.33 6.68c3.74 1.17 5.83 5.18 4.67 8.95-0.96 3.06-3.75 5.03-6.78 5.03"/>
		<path class="stcero1" d="m480.33 315.19c-0.62 0-1.23-0.08-1.85-0.25l-21.56-5.88c-3.78-1.04-6.02-4.97-5-8.78s4.95-6.08 8.69-5.03l21.56 5.88c3.78 1.04 6.02 4.97 5 8.78-0.86 3.18-3.72 5.28-6.84 5.28m-53.78-14.68c-0.62 0-1.23-0.08-1.86-0.25l-32.21-8.79c-3.78-1.04-6.02-4.96-5-8.78 1.03-3.81 4.96-6.07 8.69-5.03l32.22 8.79c3.78 1.03 6.02 4.95 4.99 8.77-0.85 3.19-3.71 5.29-6.83 5.29"/>
		<path class="stuno1" d="m308.82 77.2h-171.33c-13.83 0-25.03 11.3-25.03 25.25v307.11c0 13.94 11.21 25.25 25.03 25.25h241.58c13.83 0 25.03-11.3 25.03-25.25v-234.13"/>
		<path class="st2" d="m379.07 441.96h-241.58c-17.71 0-32.12-14.53-32.12-32.4v-307.12c0-17.87 14.41-32.4 32.12-32.4h171.33c3.92 0 7.09 3.21 7.09 7.15 0 3.95-3.17 7.15-7.09 7.15h-171.33c-9.9 0-17.94 8.12-17.94 18.09v307.12c0 9.97 8.04 18.09 17.94 18.09h241.58c9.9 0 17.94-8.12 17.94-18.09v-234.11c0-3.96 3.17-7.16 7.09-7.16s7.09 3.21 7.09 7.16v234.12c0 17.86-14.41 32.4-32.12 32.4"/>
		<path class="st3" d="M308.82,77.2v77.2c0,11.62,9.34,21.04,20.86,21.04h74.42L308.82,77.2z"/>
		<path class="st2" d="m404.09 182.59h-74.42c-15.41 0-27.94-12.65-27.94-28.19v-77.2c0-2.91 1.74-5.53 4.41-6.63 2.68-1.09 5.74-0.45 7.75 1.62l95.27 98.25c1.99 2.05 2.57 5.12 1.47 7.77-1.11 2.66-3.68 4.38-6.54 4.38zm-88.18-87.85v59.66c0 7.66 6.17 13.89 13.77 13.89h57.56l-71.33-73.55z"/>
		<path class="st2" d="m193.72 337.35c-0.69 0-1.39-0.1-2.06-0.31l-81.26-24.95c-3.75-1.15-5.87-5.14-4.73-8.92 1.15-3.79 5.13-5.92 8.85-4.76l77.51 23.8 86.66-75.82c1.78-1.57 4.21-2.14 6.51-1.5l120.76 33.17c3.79 1.04 6.01 4.97 4.98 8.78-1.03 3.82-4.94 6.03-8.71 5.02l-117.12-32.17-86.75 75.91c-1.31 1.15-2.96 1.75-4.64 1.75"/>
		<path class="st3" d="m212.82 314.87c8.28 8.79 7.93 22.69-0.79 31.05-8.71 8.35-22.49 7.99-30.77-0.8-8.29-8.79-7.93-22.69 0.78-31.05 8.72-8.35 22.5-8 30.78 0.8"/>
		<path class="st2" d="m197.04 359.1c-7.87 0-15.5-3.3-20.93-9.06-10.96-11.64-10.5-30.1 1.03-41.16 11.11-10.62 30.26-10.13 40.82 1.05 10.96 11.65 10.49 30.11-1.05 41.16-5.39 5.17-12.44 8.01-19.87 8.01m-0.01-43.91c-3.78 0-7.37 1.45-10.11 4.06-5.86 5.63-6.09 15.02-0.52 20.94 5.38 5.73 15.05 5.98 20.75 0.54 5.87-5.62 6.1-15.01 0.53-20.94-2.81-2.97-6.58-4.6-10.65-4.6"/>
		<path class="st3" d="m298.53 236.67c8.28 8.79 7.93 22.69-0.79 31.05-8.71 8.35-22.49 7.99-30.77-0.8-8.29-8.79-7.93-22.69 0.78-31.05 8.72-8.35 22.5-8 30.78 0.8"/>
		<path class="st2" d="m282.75 280.9c-7.88 0-15.5-3.3-20.93-9.06-5.31-5.64-8.13-13.03-7.93-20.8 0.19-7.77 3.38-15.01 8.98-20.36 11.07-10.64 30.27-10.13 40.8 1.05 10.96 11.65 10.49 30.11-1.05 41.16-5.39 5.17-12.44 8.01-19.87 8.01m0-43.91c-3.78 0-7.37 1.44-10.1 4.06-2.85 2.73-4.47 6.4-4.57 10.36s1.33 7.71 4.04 10.58c5.39 5.73 15.05 5.98 20.75 0.53 5.87-5.62 6.1-15.01 0.53-20.93-2.81-2.97-6.59-4.6-10.65-4.6"/>
</svg>
