<?xml version="1.0" encoding="UTF-8"?>
<svg class="coretta__logo" enable-background="new 0 0 2351.17 808.75" version="1.1" viewBox="0 0 2351.17 808.75" xml:space="preserve" xmlns="http://www.w3.org/2000/svg">
    <style type="text/css">
        .stcero{fill:#3BD4AE;}
        .stuno{fill:#2A7DE1;}
    </style>

    <polygon class="stcero tree__top" points="2011.3 330.6 2106 377.92 2204.8 331.19 2204.8 331.19 2237.8 315.59 2106 81.99 1981.3 315.59"/>
    <polygon class="stcero tree__bottom" points="2220.6 359.23 2119.7 406.95 2105.6 413.62 2091.6 406.64 1996.2 358.94 1926.6 489.38 2105.2 578.67 2294.1 489.38"/>

    <path class="stuno logo__c" d="m320.47 233.13v-34.92h40.39v101.61h-41.24c-10.38-20.33-24.61-36.18-42.71-47.54-18.09-11.36-37.94-17.04-59.54-17.04-20.9 0-39.55 5.51-55.96 16.52s-29.21 25.74-38.39 44.18c-9.19 18.45-13.78 38.26-13.78 59.43 0 21.88 4.8 42.07 14.41 60.59 9.61 18.51 22.83 33.31 39.66 44.39s35.55 16.62 56.17 16.62c25.38 0 47.83-7.75 67.32-23.25 19.5-15.5 33.73-37.48 42.71-65.96l40.39 21.46c-10.94 35.35-30.26 62.73-57.96 82.16-27.7 19.42-60.21 29.14-97.51 29.14-30.71 0-57.99-7.33-81.84-21.99-23.85-14.65-42.39-34.37-55.64-59.12-13.26-24.75-19.88-51.93-19.88-81.53 0-32.12 6.77-60.73 20.3-85.84 13.53-25.1 32.22-44.56 56.07-58.38 23.84-13.81 51.12-20.72 81.84-20.72 20.62 0 39.62 3.44 57.01 10.31 17.39 6.88 33.45 16.84 48.18 29.88z"/>
    <path class="stuno logo__o" d="m652.59 405.01c0 21.46-5.12 41.1-15.36 58.91-10.24 17.82-24.19 31.91-41.86 42.28-17.67 10.38-37.24 15.57-58.7 15.57-22.16 0-42.15-5.19-59.96-15.57-17.81-10.37-31.66-24.47-41.55-42.28s-14.83-37.44-14.83-58.91c0-22.44 4.94-42.49 14.83-60.17 9.89-17.67 23.67-31.52 41.34-41.55 17.67-10.02 37.73-15.04 60.17-15.04 21.74 0 41.45 5.3 59.12 15.88 17.67 10.59 31.56 24.79 41.65 42.6 10.1 17.82 15.15 37.25 15.15 58.28zm-115.92 74.48c12.9 0 24.75-3.37 35.55-10.1s19.21-15.78 25.25-27.14c6.03-11.36 9.05-23.77 9.05-37.24 0-13.18-3.02-25.45-9.05-36.82-6.03-11.36-14.45-20.51-25.25-27.46-10.8-6.94-22.79-10.41-35.98-10.41-12.9 0-24.75 3.4-35.55 10.2s-19.29 15.96-25.46 27.46-9.26 23.85-9.26 37.03c0 13.19 3.08 25.53 9.26 37.03 6.17 11.5 14.73 20.62 25.67 27.35 10.95 6.74 22.87 10.1 35.77 10.1z"/>
    <path class="stuno logo__r" d="m792.36 426.48v50.07h48.18v38.71h-135.7v-38.71h44.39v-143.48h-44.39v-38.92h78.89v50.07c8.84-19.77 19.81-33.55 32.92-41.34 13.11-7.78 31.87-11.67 56.28-11.67h9.89v43.97h-9.47c-23.56 0-41.1 3.09-52.6 9.26-11.5 6.18-19.11 15.5-22.83 27.98-3.7 12.47-5.56 30.49-5.56 54.06z"/>
    <path class="stuno logo__e" d="m1154.2 415.74h-185.35c2.66 21.18 10.87 37.91 24.62 50.18 13.74 12.28 30.57 18.41 50.49 18.41 14.58 0 28.12-3.01 40.6-9.04s22.93-15.29 31.35-27.77l38.29 17.25c-12.06 18.79-27.87 32.99-47.44 42.6-19.56 9.61-40.85 14.41-63.85 14.41-23.85 0-45.02-4.98-63.54-14.93-18.51-9.96-32.92-23.85-43.23-41.65-10.31-17.81-15.46-37.87-15.46-60.17 0-22.16 5.08-42.14 15.25-59.96 10.17-17.81 24.09-31.73 41.76-41.76 17.67-10.02 37.17-15.04 58.49-15.04 23.28 0 43.58 5.15 60.9 15.46s30.96 25.03 40.92 44.18c9.96 19.13 15.36 41.75 16.2 67.83zm-117.18-91.3c-16.41 0-30.79 5.51-43.13 16.51-12.34 11.01-20.27 25.56-23.77 43.65h138.43c-4.07-18.09-12.69-32.64-25.88-43.65-13.18-11-28.4-16.51-45.65-16.51z"/>
    <path class="stuno logo__t" d="m1343.8 297.44v32.33h-63.47v119.22c0 12.07 1.3 19.88 3.89 23.46 2.6 3.58 7.05 5.36 13.36 5.36 7.71 0 15.43-1.32 23.14-4v39.34c-13.46 3.93-24.33 5.89-32.61 5.89-18.24 0-34.65-4.59-42.64-13.78-8-9.19-11.99-24.93-11.99-47.23v-128.26h-32.12v-32.33h32.12v-36.75l46.84-39.76v76.51h63.48z"/>
    <path class="stuno logo__t" d="m1530.5 297.44v32.33h-63.47v119.22c0 12.07 1.3 19.88 3.89 23.46 2.6 3.58 7.05 5.36 13.36 5.36 7.71 0 15.43-1.32 23.14-4v39.34c-13.46 3.93-24.33 5.89-32.61 5.89-18.24 0-34.65-4.59-42.64-13.78-8-9.19-11.99-24.93-11.99-47.23v-128.26h-35.42v-32.33h35.42v-36.75l46.84-39.76v76.51h63.48z"/>
    <path class="stuno logo__a" d="m1758.6 372.19v104.35h37.03v38.71h-75.32v-27.14c-21.04 20.62-44.46 30.93-70.26 30.93-13.61 0-26.05-3.16-37.34-9.47s-20.34-14.75-27.14-25.34-10.2-22.33-10.2-35.24c0-13.89 3.75-26.26 11.26-37.13 7.5-10.87 17.63-19.25 30.4-25.14 12.76-5.89 25.59-8.84 38.5-8.84 21.59 0 41.72 6.31 60.38 18.93v-23.77c0-17.25-3.65-29.59-10.94-37.03-7.29-7.43-19.29-11.15-35.97-11.15-11.78 0-21.64 2.14-29.56 6.42s-14.48 10.76-19.67 19.46l-41.66-10.31c9.39-17.53 22.09-30.61 38.08-39.24s34.99-12.94 57.01-12.94c29.59 0 51.23 6.73 64.9 20.19 13.67 13.47 20.5 34.72 20.5 63.75zm-102.66 113.4c21.32 0 41.3-8.9 59.96-26.71v-25.88c-18.93-14.72-37.87-22.09-56.8-22.09-11.5 0-21.43 3.61-29.77 10.84-8.35 7.22-12.52 16.3-12.52 27.24 0 10.52 3.65 19.25 10.94 26.19s16.69 10.41 28.19 10.41z"/>
</svg>