<?xml version="1.0" encoding="UTF-8"?>
<svg class="coretta-logo" enable-background="new 0 0 2351.17 808.75" version="1.1" viewBox="0 0 2351.17 808.75" xml:space="preserve" xmlns="http://www.w3.org/2000/svg">
    <style type="text/css">
        .stcero{fill:#3BD4AE;}
        .stuno{fill:#2A7DE1;}
    </style>

    <polygon class="stcero tree-top" points="2011.3 330.6 2106 377.92 2204.8 331.19 2204.8 331.19 2237.8 315.59 2106 81.99 1981.3 315.59"/>
    <polygon class="stcero tree-bottom" points="2220.6 359.23 2119.7 406.95 2105.6 413.62 2091.6 406.64 1996.2 358.94 1926.6 489.38 2105.2 578.67 2294.1 489.38"/>

    <path class="stuno logo-c" d="m320.47 233.13v-34.92h40.39v101.61h-41.24c-10.38-20.33-24.61-36.18-42.71-47.54-18.09-11.36-37.94-17.04-59.54-17.04-20.9 0-39.55 5.51-55.96 16.52s-29.21 25.74-38.39 44.18c-9.19 18.45-13.78 38.26-13.78 59.43 0 21.88 4.8 42.07 14.41 60.59 9.61 18.51 22.83 33.31 39.66 44.39s35.55 16.62 56.17 16.62c25.38 0 47.83-7.75 67.32-23.25 19.5-15.5 33.73-37.48 42.71-65.96l40.39 21.46c-10.94 35.35-30.26 62.73-57.96 82.16-27.7 19.42-60.21 29.14-97.51 29.14-30.71 0-57.99-7.33-81.84-21.99-23.85-14.65-42.39-34.37-55.64-59.12-13.26-24.75-19.88-51.93-19.88-81.53 0-32.12 6.77-60.73 20.3-85.84 13.53-25.1 32.22-44.56 56.07-58.38 23.84-13.81 51.12-20.72 81.84-20.72 20.62 0 39.62 3.44 57.01 10.31 17.39 6.88 33.45 16.84 48.18 29.88z"/>
    <path class="stuno logo-o" d="m652.59 405.01c0 21.46-5.12 41.1-15.36 58.91-10.24 17.82-24.19 31.91-41.86 42.28-17.67 10.38-37.24 15.57-58.7 15.57-22.16 0-42.15-5.19-59.96-15.57-17.81-10.37-31.66-24.47-41.55-42.28s-14.83-37.44-14.83-58.91c0-22.44 4.94-42.49 14.83-60.17 9.89-17.67 23.67-31.52 41.34-41.55 17.67-10.02 37.73-15.04 60.17-15.04 21.74 0 41.45 5.3 59.12 15.88 17.67 10.59 31.56 24.79 41.65 42.6 10.1 17.82 15.15 37.25 15.15 58.28zm-115.92 74.48c12.9 0 24.75-3.37 35.55-10.1s19.21-15.78 25.25-27.14c6.03-11.36 9.05-23.77 9.05-37.24 0-13.18-3.02-25.45-9.05-36.82-6.03-11.36-14.45-20.51-25.25-27.46-10.8-6.94-22.79-10.41-35.98-10.41-12.9 0-24.75 3.4-35.55 10.2s-19.29 15.96-25.46 27.46-9.26 23.85-9.26 37.03c0 13.19 3.08 25.53 9.26 37.03 6.17 11.5 14.73 20.62 25.67 27.35 10.95 6.74 22.87 10.1 35.77 10.1z"/>
    <path class="stuno logo-r" d="m792.36 426.48v50.07h48.18v38.71h-135.7v-38.71h44.39v-143.48h-44.39v-38.92h78.89v50.07c8.84-19.77 19.81-33.55 32.92-41.34 13.11-7.78 31.87-11.67 56.28-11.67h9.89v43.97h-9.47c-23.56 0-41.1 3.09-52.6 9.26-11.5 6.18-19.11 15.5-22.83 27.98-3.7 12.47-5.56 30.49-5.56 54.06z"/>
    <path class="stuno logo-e" d="m1154.2 415.74h-185.35c2.66 21.18 10.87 37.91 24.62 50.18 13.74 12.28 30.57 18.41 50.49 18.41 14.58 0 28.12-3.01 40.6-9.04s22.93-15.29 31.35-27.77l38.29 17.25c-12.06 18.79-27.87 32.99-47.44 42.6-19.56 9.61-40.85 14.41-63.85 14.41-23.85 0-45.02-4.98-63.54-14.93-18.51-9.96-32.92-23.85-43.23-41.65-10.31-17.81-15.46-37.87-15.46-60.17 0-22.16 5.08-42.14 15.25-59.96 10.17-17.81 24.09-31.73 41.76-41.76 17.67-10.02 37.17-15.04 58.49-15.04 23.28 0 43.58 5.15 60.9 15.46s30.96 25.03 40.92 44.18c9.96 19.13 15.36 41.75 16.2 67.83zm-117.18-91.3c-16.41 0-30.79 5.51-43.13 16.51-12.34 11.01-20.27 25.56-23.77 43.65h138.43c-4.07-18.09-12.69-32.64-25.88-43.65-13.18-11-28.4-16.51-45.65-16.51z"/>
    <path class="stuno logo-t" d="m1343.8 297.44v32.33h-63.47v119.22c0 12.07 1.3 19.88 3.89 23.46 2.6 3.58 7.05 5.36 13.36 5.36 7.71 0 15.43-1.32 23.14-4v39.34c-13.46 3.93-24.33 5.89-32.61 5.89-18.24 0-34.65-4.59-42.64-13.78-8-9.19-11.99-24.93-11.99-47.23v-128.26h-32.12v-32.33h32.12v-36.75l46.84-39.76v76.51h63.48z"/>
    <path class="stuno logo-t" d="m1530.5 297.44v32.33h-63.47v119.22c0 12.07 1.3 19.88 3.89 23.46 2.6 3.58 7.05 5.36 13.36 5.36 7.71 0 15.43-1.32 23.14-4v39.34c-13.46 3.93-24.33 5.89-32.61 5.89-18.24 0-34.65-4.59-42.64-13.78-8-9.19-11.99-24.93-11.99-47.23v-128.26h-35.42v-32.33h35.42v-36.75l46.84-39.76v76.51h63.48z"/>
    <path class="stuno logo-a" d="m1758.6 372.19v104.35h37.03v38.71h-75.32v-27.14c-21.04 20.62-44.46 30.93-70.26 30.93-13.61 0-26.05-3.16-37.34-9.47s-20.34-14.75-27.14-25.34-10.2-22.33-10.2-35.24c0-13.89 3.75-26.26 11.26-37.13 7.5-10.87 17.63-19.25 30.4-25.14 12.76-5.89 25.59-8.84 38.5-8.84 21.59 0 41.72 6.31 60.38 18.93v-23.77c0-17.25-3.65-29.59-10.94-37.03-7.29-7.43-19.29-11.15-35.97-11.15-11.78 0-21.64 2.14-29.56 6.42s-14.48 10.76-19.67 19.46l-41.66-10.31c9.39-17.53 22.09-30.61 38.08-39.24s34.99-12.94 57.01-12.94c29.59 0 51.23 6.73 64.9 20.19 13.67 13.47 20.5 34.72 20.5 63.75zm-102.66 113.4c21.32 0 41.3-8.9 59.96-26.71v-25.88c-18.93-14.72-37.87-22.09-56.8-22.09-11.5 0-21.43 3.61-29.77 10.84-8.35 7.22-12.52 16.3-12.52 27.24 0 10.52 3.65 19.25 10.94 26.19s16.69 10.41 28.19 10.41z"/>

    <path class="stuno slogan-D" d="m213.49 635.05h19.11c9.22 0 17.57 1.44 24.59 5.67 9.99 6.05 15.56 16.71 15.56 28.81 0 11.52-4.99 21.8-13.83 28.04-7.39 5.19-16.61 7.01-28.62 7.01h-16.81v-69.53zm18.25 61.27c8.36 0 15.08-1.06 20.65-4.61 6.63-4.23 11.24-12.1 11.24-21.9 0-10.08-4.9-17.57-11.14-21.7-6.05-4.03-13.45-4.8-20.94-4.8h-8.93v53.01h9.12z"/>
    <path class="stuno slogan-e" d="m292.98 683.45c1.25 9.32 8.16 14.41 17.48 14.41 6.53 0 12-1.85 16.33-5.12v9.22c-4.23 2.69-10.76 3.68-16.9 3.68-14.6 0-25.55-9.8-25.55-24.68 0-14.89 10.85-24.68 23.53-24.68 11.52 0 21.51 8.07 21.51 22.86 0 1.44-0.1 3.17-0.29 4.32h-36.11zm0.19-6.82h27.85c-0.77-9.41-7.68-12.58-13.35-12.58-6.24 0-12.96 3.84-14.5 12.58z"/>
    <path class="stuno slogan-s" d="m347.84 696.57c4.88 1.21 11.36 1.28 17.22 1.28 6.53 0 10.76-1.92 10.76-6.53 0-5.67-6.82-5.76-14.12-7.01-9.03-1.54-16.13-6.45-16.13-15.77 0.1-9.8 8.45-14.5 19.4-14.5 5.67 0 11.83 0.03 16.9 1.52l-0.74 7.16c-5.93-1.32-11.07-0.9-16.54-0.9-6.05 0-10.28 1.82-10.28 6.05 0 5.38 6.72 7.6 13.73 8.85 9.03 1.54 16.52 4.03 16.52 13.83 0 10.95-9.8 15.08-19.88 15.08-6.05 0-11.42-1.06-17.57-1.52l0.73-7.54z"/>
    <path class="stuno slogan-i" d="m408.76 635.05c3.36 0 6.05 2.69 6.05 6.05s-2.69 6.05-6.05 6.05-6.05-2.69-6.05-6.05 2.69-6.05 6.05-6.05zm-4.32 22.28h8.64v47.25h-8.64v-47.25z"/>
    <path class="stuno slogan-g" d="m433.65 713.99c4.51 2.98 9.7 4.9 14.98 4.9 9.03 0 15.08-5.38 15.08-14.31v-3.46l-0.19-0.1c-3.27 2.21-7.88 3.65-12.87 3.65-12.87 0-23.14-9.7-23.14-23.62 0-13.35 9.12-24.78 24.49-24.78 4.9 0 8.84 1.15 12 2.69l8.36-1.44v46.87c0 13.83-9.22 22.38-23.72 22.38-5.76 0-11.04-1.54-14.98-3.55v-9.23zm18.25-16.9c4.32 0 8.93-1.54 11.81-3.84v-26.03c-2.98-1.83-7.59-3.27-11.91-3.27-9.51 0-15.56 7.3-15.56 16.52 0 9.51 6.34 16.62 15.66 16.62z"/>
    <path class="stuno slogan-n" d="m490.59 657.33h8.64v5.95l0.19 0.1c4.13-4.13 9.89-7.11 16.52-7.11 5.19 0 9.6 1.83 12.58 5.19 2.59 2.98 3.94 6.63 3.94 13.93v29.19h-8.64v-27.56c0-4.9-0.67-7.78-2.21-9.6-1.92-2.31-4.99-3.07-7.59-3.07-5.38 0-11.43 3.36-14.79 7.88v32.36h-8.64v-47.26z"/>
    <path class="stuno slogan-comma" d="m549.01 701.11h8.25l-7.34 25.65h-5.98l5.07-25.65z"/>

    <path class="stuno slogan-T" d="m621.48 644.98h-22.87v-8.09h54.68v8.09h-22.87v60.04h-8.94v-60.04z"/>
    <path class="stuno slogan-e" d="m659.21 684.32c1.22 9.13 8 14.12 17.13 14.12 6.4 0 11.76-2.54 16-5.74v9.04c-4.14 2.63-10.54 4.33-16.56 4.33-14.3 0-25.03-9.6-25.03-24.19s10.63-24.19 23.06-24.19c11.29 0 21.08 7.91 21.08 22.4 0 1.41-0.09 3.11-0.28 4.23h-35.4zm0.19-6.68h27.29c-0.75-9.22-7.53-12.33-13.08-12.33-6.12 0-12.71 3.76-14.21 12.33z"/>
    <path class="stuno slogan-c" d="m744.16 702.86c-3.95 2.16-9.13 3.2-13.83 3.2-14.68 0-25.13-10.16-25.13-23.9 0-14.31 11.29-24.47 25.69-24.47 4.8 0 9.22 1.22 12.52 2.92v8.75c-3.86-2.45-8.38-3.95-12.89-3.95-10.07 0-16.75 7.43-16.75 16.75 0 9.5 7.06 16.19 17.03 16.19 5.27 0 9.88-1.79 13.36-4.52v9.03z"/>
    <path class="stuno slogan-h" d="m758.62 633.12h8.47v31.43l0.19 0.09c4.05-4.05 9.69-6.96 16.19-6.96 5.08 0 9.41 1.79 12.33 5.08 2.54 2.92 3.86 6.49 3.86 13.65v28.61h-8.47v-27.01c0-5.18-0.66-7.62-2.26-9.41-1.79-2.07-4.14-3.01-7.06-3.01-5.55 0-11.29 3.39-14.78 7.72v31.72h-8.47v-71.91z"/>
    <path class="stuno slogan-n" d="m816.56 658.72h8.47v5.83l0.19 0.09c4.05-4.05 9.69-6.96 16.19-6.96 5.08 0 9.41 1.79 12.33 5.08 2.54 2.92 3.86 6.49 3.86 13.65v28.61h-8.47v-27.01c0-4.8-0.66-7.62-2.16-9.41-1.88-2.26-4.89-3.01-7.43-3.01-5.27 0-11.2 3.29-14.49 7.72v31.72h-8.47v-46.31z"/>
    <path class="stuno slogan-o" d="m895.02 657.69c14.02 0 24.47 10.54 24.47 24.19s-10.45 24.19-24.47 24.19-24.47-10.54-24.47-24.19 10.45-24.19 24.47-24.19zm0 40.65c9.22 0 16-7.15 16-16.47s-6.78-16.47-16-16.47-16 7.15-16 16.47 6.78 16.47 16 16.47z"/>
    <path class="stuno slogan-l" d="m935.61 633.12h8.47v71.9h-8.47v-71.9z"/>
    <path class="stuno slogan-o" d="m982.44 657.69c14.02 0 24.47 10.54 24.47 24.19s-10.45 24.19-24.47 24.19-24.47-10.54-24.47-24.19 10.45-24.19 24.47-24.19zm0 40.65c9.22 0 16-7.15 16-16.47s-6.78-16.47-16-16.47-16 7.15-16 16.47 6.78 16.47 16 16.47z"/>
    <path class="stuno slogan-g" d="m1028.4 714.25c4.42 2.92 9.51 4.8 14.68 4.8 8.85 0 14.78-5.27 14.78-14.02v-3.39l-0.19-0.09c-3.2 2.16-7.72 3.58-12.61 3.58-12.61 0-22.68-9.5-22.68-23.15 0-13.08 8.94-24.28 24-24.28 4.8 0 8.66 1.13 11.76 2.63l8.19-1.41v45.93c0 13.55-9.03 21.93-23.25 21.93-5.65 0-10.82-1.5-14.68-3.48v-9.05zm17.88-16.57c4.23 0 8.75-1.51 11.58-3.76v-25.5c-2.92-1.79-7.43-3.2-11.67-3.2-9.32 0-15.25 7.15-15.25 16.19 0 9.31 6.21 16.27 15.34 16.27z"/>
    <path class="stuno slogan-y" d="m1085.6 725.73l12.52-25.69-19.29-41.31h9.41l8.09 17.5c2.16 4.71 4.42 9.69 6.31 13.93h0.19c2.07-4.61 4.14-9.22 6.31-13.93l8.09-17.5h8.94l-31.34 67.01h-9.23z"/>
    <path class="stuno slogan-amp" d="m1219.1 670.11l-7.8 24.2 14.86 14.95-0.09 0.18h-10.33l-7.8-7.8c-3.53 4.98-9.88 8.79-19.49 8.79-14.5 0-21.93-8.79-21.93-18.49 0-6.53 3.44-12.24 11.33-16.86l2.18-1.27-1.99-2.08c-3.99-4.08-6.62-8.16-6.62-13.6 0-9.15 7.34-15.32 16.77-15.32 9.97 0 16.68 6.8 16.68 15.32 0 6.16-3.53 10.97-8.97 14.5l-3.72 2.45 12.87 12.96 5.62-17.95h8.43zm-17.13 25.65l-16.59-16.68-3.44 1.99c-4.98 2.9-7.25 6.62-7.25 10.6 0 5.89 4.89 11.33 14.05 11.33 6.61 0.01 10.87-2.89 13.23-7.24zm-17.86-28.83l2.81 2.9 4.08-2.72c3.26-2.18 5.71-4.89 5.71-8.79 0-4.89-3.81-7.98-8.7-7.98-5.26 0-8.43 3.53-8.43 7.89 0 2.99 1.45 5.53 4.53 8.7z"/>

    <path class="stuno slogan-T" d="m1290.8 639.84h-24.31v-8.6h58.11v8.6h-24.31v63.81h-9.5v-63.81z"/>
    <path class="stuno slogan-r" d="m1330.8 654.45h9v7.2l0.2 0.1c3.4-4.8 8.8-7.7 14.6-7.7 1 0 2.1 0.1 3.2 0.4v8.9c-1.2-0.3-2.4-0.4-3.5-0.4-6.7 0-11.4 3.4-14.5 8.7v32.01h-9v-49.21z"/>
    <path class="stuno slogan-a" d="m1372.2 701.26c-3.2-2.4-5.2-6.1-5.2-10.9 0-5.5 2.6-9.5 6.5-12 3.7-2.4 8.7-3.3 13.8-3.3 3.8 0 7.3 0.5 10.5 1.3v-4.1c0-3.6-0.9-6.3-2.8-8.1-1.9-1.7-4.9-2.7-9.1-2.7-6.2 0-11.4 2.2-15.1 4.9v-8.8c3.8-2.3 9.1-4.2 16.4-4.2 6 0 11.2 1.3 14.7 4.5 2.9 2.6 4.9 6.8 4.9 12.9v20.9c0 3 1.1 5.2 3.8 5.2 1 0 2.1-0.3 2.9-0.7v7.5c-1.2 0.5-2.9 0.9-4.8 0.9-3.9 0-7.6-1.7-9.5-5.2h-0.2c-2.8 2.6-8.5 5.4-15.1 5.4-4 0-8.4-1-11.7-3.5zm25.61-8.8v-9.2c-2.7-0.8-6.5-1.3-9.6-1.3-6.1 0-12.1 1.8-12.1 7.6 0 4.8 4.1 7.2 9.4 7.2 4.7 0 9.3-1.9 12.3-4.3z"/>
    <path class="stuno slogan-i" d="m1434.7 631.24c3.5 0 6.3 2.8 6.3 6.3s-2.8 6.3-6.3 6.3-6.3-2.8-6.3-6.3 2.8-6.3 6.3-6.3zm-4.5 23.21h9v49.21h-9v-49.21z"/>
    <path class="stuno slogan-n" d="m1459.5 654.45h9v6.2l0.2 0.1c4.3-4.3 10.3-7.4 17.2-7.4 5.4 0 10 1.9 13.1 5.4 2.7 3.1 4.1 6.9 4.1 14.5v30.41h-9v-28.71c0-5.1-0.7-8.1-2.3-10-2-2.4-5.2-3.2-7.9-3.2-5.6 0-11.9 3.5-15.4 8.2v33.71h-9v-49.21z"/>
    <path class="stuno slogan-i" d="m1529.8 631.24c3.5 0 6.3 2.8 6.3 6.3s-2.8 6.3-6.3 6.3-6.3-2.8-6.3-6.3 2.8-6.3 6.3-6.3zm-4.5 23.21h9v49.21h-9v-49.21z"/>
    <path class="stuno slogan-n" d="m1556.8 654.45h9v6.2l0.2 0.1c4.3-4.3 10.3-7.4 17.2-7.4 5.4 0 10 1.9 13.1 5.4 2.7 3.1 4.1 6.9 4.1 14.5v30.41h-9v-28.71c0-5.1-0.7-8.1-2.3-10-2-2.4-5.2-3.2-7.9-3.2-5.6 0-11.9 3.5-15.4 8.2v33.71h-9v-49.21z"/>
    <path class="stuno slogan-g" d="m1626 713.46c4.7 3.1 10.1 5.1 15.6 5.1 9.4 0 15.7-5.6 15.7-14.9v-3.6l-0.2-0.1c-3.4 2.3-8.2 3.8-13.4 3.8-13.4 0-24.11-10.1-24.11-24.61 0-13.9 9.5-25.81 25.51-25.81 5.1 0 9.2 1.2 12.5 2.8l8.7-1.5v48.81c0 14.4-9.6 23.31-24.71 23.31-6 0-11.5-1.6-15.6-3.7v-9.6zm19.01-17.6c4.5 0 9.3-1.6 12.3-4v-27.11c-3.1-1.9-7.9-3.4-12.4-3.4-9.9 0-16.2 7.6-16.2 17.2 0 9.9 6.6 17.31 16.3 17.31z"/>
</svg>