<?xml version="1.0" encoding="UTF-8"?>
<svg enable-background="new 0 0 512 512" version="1.1" viewBox="0 0 512 512" xml:space="preserve" xmlns="http://www.w3.org/2000/svg">
<style type="text/css">
	.st0{fill-rule:evenodd;clip-rule:evenodd;fill:#E3E7EB;}
	.st1{fill-rule:evenodd;clip-rule:evenodd;fill:#88959E;}
	.st2{fill-rule:evenodd;clip-rule:evenodd;fill:#FFFFFF;}
	.st3{fill-rule:evenodd;clip-rule:evenodd;fill:#4B4F55;}
	.st4{fill-rule:evenodd;clip-rule:evenodd;fill:#F4F4F3;}
</style>
		<polygon class="st0" points="88.86 156.72 261.46 56.62 434.06 156.72 434.06 356.91 261.46 457.01 88.86 356.91"/>
		<path class="st1" d="m261.46 464.23c-1.24 0-2.49-0.31-3.6-0.96l-172.59-100.1c-2.24-1.3-3.6-3.68-3.6-6.27v-200.2c0-2.59 1.36-4.97 3.6-6.26l172.6-100.1c2.22-1.29 4.98-1.29 7.2 0l172.6 100.1c2.23 1.29 3.59 3.67 3.59 6.26v200.2c0 2.59-1.36 4.97-3.59 6.27l-172.6 100.09c-1.12 0.65-2.36 0.97-3.61 0.97zm-165.41-111.5l165.41 95.93 165.4-95.93v-191.84l-165.4-95.93-165.41 95.93v191.84z"/>
		<path class="st2" d="m285.11 449.03c0 13.12-10.59 23.76-23.65 23.76s-23.65-10.64-23.65-23.76 10.59-23.76 23.65-23.76 23.65 10.64 23.65 23.76"/>
		<path class="st3" d="m261.46 480.02c-17.02 0-30.85-13.9-30.85-30.99 0-17.08 13.83-30.98 30.85-30.98s30.85 13.9 30.85 30.98c0.01 17.09-13.83 30.99-30.85 30.99m0-47.52c-9.08 0-16.46 7.42-16.46 16.53 0 9.12 7.38 16.54 16.46 16.54s16.46-7.42 16.46-16.54c0-9.11-7.38-16.53-16.46-16.53"/>
		<path class="st2" d="m285.11 62.66c0 13.12-10.59 23.76-23.65 23.76s-23.65-10.64-23.65-23.76 10.59-23.76 23.65-23.76 23.65 10.64 23.65 23.76"/>
		<path class="st3" d="m261.46 93.65c-17.02 0-30.85-13.9-30.85-30.99 0-17.08 13.83-30.98 30.85-30.98s30.85 13.9 30.85 30.98c0.01 17.09-13.83 30.99-30.85 30.99m0-47.52c-9.08 0-16.46 7.42-16.46 16.53 0 9.12 7.38 16.54 16.46 16.54s16.46-7.42 16.46-16.54-7.38-16.53-16.46-16.53"/>
		<path class="st2" d="m108.57 160.5c0 13.12-10.59 23.76-23.65 23.76s-23.65-10.64-23.65-23.76 10.59-23.76 23.65-23.76 23.65 10.64 23.65 23.76"/>
		<path class="st3" d="m84.92 191.49c-17.02 0-30.85-13.9-30.85-30.99 0-17.08 13.83-30.98 30.85-30.98s30.85 13.9 30.85 30.98c0 17.09-13.84 30.99-30.85 30.99m0-47.52c-9.08 0-16.46 7.42-16.46 16.53 0 9.12 7.38 16.54 16.46 16.54s16.46-7.42 16.46-16.54-7.39-16.53-16.46-16.53"/>
		<path class="st4" d="m453.98 356.61c0 13.12-10.59 23.76-23.65 23.76s-23.65-10.64-23.65-23.76 10.59-23.76 23.65-23.76 23.65 10.64 23.65 23.76"/>
		<path class="st3" d="m430.33 387.6c-17.02 0-30.85-13.9-30.85-30.99 0-17.08 13.83-30.98 30.85-30.98s30.85 13.9 30.85 30.98c0 17.09-13.83 30.99-30.85 30.99m0-47.52c-9.08 0-16.46 7.42-16.46 16.53 0 9.12 7.38 16.54 16.46 16.54s16.46-7.42 16.46-16.54-7.38-16.53-16.46-16.53"/>
		<line class="st2" x1="133.89" x2="35.94" y1="432.86" y2="280.69"/>
		<path class="st1" d="m133.9 440.1c-2.36 0-4.67-1.17-6.05-3.31l-97.95-152.17c-2.16-3.36-1.2-7.83 2.13-10s7.79-1.21 9.96 2.14l97.95 152.18c2.16 3.35 1.19 7.82-2.13 9.99-1.21 0.79-2.57 1.17-3.91 1.17"/>
		<path class="st2" d="m104.78 343.87c7.09 11.02 3.95 25.72-7.02 32.85s-25.62 3.97-32.7-7.05c-7.09-11.02-3.95-25.72 7.02-32.85 10.97-7.12 25.61-3.97 32.7 7.05"/>
		<path class="st3" d="m84.93 387.76c-10.52 0-20.22-5.29-25.93-14.16-9.23-14.35-5.11-33.57 9.16-42.85 5-3.25 10.79-4.97 16.73-4.97 10.53 0 20.23 5.3 25.93 14.18 4.47 6.94 5.99 15.22 4.25 23.32-1.73 8.09-6.49 15.03-13.41 19.52-4.99 3.24-10.78 4.96-16.73 4.96m-0.04-47.52c-3.16 0-6.24 0.91-8.91 2.65-7.61 4.95-9.81 15.21-4.88 22.86 4.76 7.38 15.34 9.71 22.76 4.9 3.69-2.4 6.23-6.1 7.15-10.41s0.12-8.73-2.27-12.43c-3.05-4.74-8.23-7.57-13.85-7.57"/>
		<path class="st1" d="m46.79 272.67c0 8.73-7.04 15.81-15.74 15.81s-15.75-7.08-15.75-15.81 7.05-15.81 15.75-15.81 15.74 7.08 15.74 15.81"/>
		<path class="st1" d="m152.24 438.54c0 8.73-7.04 15.81-15.74 15.81-8.69 0-15.75-7.08-15.75-15.81s7.05-15.81 15.75-15.81c8.69 0 15.74 7.08 15.74 15.81"/>
		<line class="st1" x1="479.14" x2="381.19" y1="235.82" y2="83.65"/>
		<path class="st1" d="m479.14 243.05c-2.36 0-4.67-1.17-6.05-3.31l-97.94-152.16c-2.16-3.36-1.2-7.83 2.13-10 3.33-2.16 7.79-1.2 9.96 2.14l97.94 152.17c2.16 3.35 1.19 7.82-2.13 9.99-1.21 0.79-2.57 1.17-3.91 1.17"/>
		<path class="st4" d="m450.03 146.83c7.09 11.02 3.95 25.72-7.02 32.85s-25.62 3.97-32.7-7.05c-7.09-11.02-3.95-25.72 7.02-32.85 10.96-7.13 25.6-3.97 32.7 7.05"/>
		<path class="st3" d="m430.18 190.72c-10.52 0-20.22-5.29-25.93-14.16-9.23-14.35-5.12-33.57 9.15-42.85 5.01-3.25 10.8-4.97 16.74-4.97 10.52 0 20.22 5.29 25.93 14.16 9.23 14.35 5.12 33.57-9.16 42.85-5 3.25-10.79 4.97-16.73 4.97m-0.04-47.52c-3.16 0-6.24 0.91-8.91 2.65-3.69 2.4-6.23 6.09-7.15 10.41s-0.12 8.73 2.27 12.44c4.75 7.39 15.32 9.74 22.76 4.91 7.62-4.95 9.81-15.21 4.88-22.85-3.05-4.74-8.23-7.56-13.85-7.56"/>
		<path class="st1" d="m392.03 75.63c0 8.73-7.04 15.81-15.74 15.81-8.69 0-15.75-7.08-15.75-15.81s7.05-15.81 15.75-15.81 15.74 7.07 15.74 15.81"/>
		<path class="st1" d="m497.48 241.5c0 8.73-7.04 15.81-15.74 15.81s-15.74-7.08-15.74-15.81 7.05-15.81 15.75-15.81 15.73 7.08 15.73 15.81"/>
		<path class="st3" d="m261.47 331.04c-2.6 0-4.99-1.4-6.26-3.67l-12.1-21.52c-1.96-3.48-0.73-7.89 2.73-9.85 3.45-1.96 7.86-0.73 9.8 2.74l10.88 19.36c2.47 2.14 3.28 5.56 1.63 8.55l-0.39 0.7c-1.28 2.28-3.88 3.69-6.29 3.69m12.86-22.91c-1.19 0-2.41-0.31-3.53-0.94-3.45-1.96-4.67-6.37-2.73-9.85l12.49-22.21c1.95-3.48 6.35-4.7 9.8-2.75 3.45 1.96 4.68 6.37 2.73 9.85l-12.48 22.22c-1.33 2.36-3.77 3.68-6.28 3.68m-37.44-20.82c-2.51 0-4.95-1.33-6.27-3.67l-12.48-22.22c-1.96-3.48-0.73-7.88 2.73-9.85 3.46-1.95 7.85-0.72 9.8 2.74l12.49 22.22c1.95 3.48 0.73 7.88-2.73 9.85-1.12 0.62-2.34 0.93-3.54 0.93m62.41-23.61c-1.2 0-2.41-0.31-3.53-0.94-3.46-1.96-4.68-6.37-2.73-9.85l12.48-22.21c1.96-3.47 6.32-4.7 9.8-2.74 3.45 1.96 4.68 6.37 2.73 9.85l-12.47 22.21c-1.33 2.35-3.77 3.68-6.28 3.68m-87.37-20.83c-2.51 0-4.95-1.34-6.27-3.68l-12.49-22.21c-1.95-3.48-0.73-7.89 2.73-9.86 3.46-1.96 7.84-0.72 9.8 2.75l12.48 22.21c1.96 3.48 0.73 7.89-2.73 9.85-1.11 0.63-2.32 0.94-3.52 0.94m112.33-23.61c-1.2 0-2.41-0.31-3.53-0.94-3.45-1.96-4.68-6.37-2.73-9.85l12.48-22.22c1.96-3.47 6.35-4.69 9.8-2.74 3.46 1.96 4.68 6.37 2.73 9.85l-12.49 22.22c-1.31 2.35-3.75 3.68-6.26 3.68m-137.29-20.82c-2.51 0-4.95-1.32-6.27-3.68l-0.79-1.39c-1.95-3.47-0.74-7.87 2.73-9.85 3.45-1.96 7.86-0.74 9.8 2.74l0.79 1.39c1.96 3.48 0.74 7.88-2.73 9.86-1.12 0.62-2.33 0.93-3.53 0.93"/>
</svg>
