<?xml version="1.0" encoding="UTF-8"?>
<svg baseProfile="tiny" version="1.1" viewBox="0 0 841.89 531.35" xml:space="preserve" xmlns="http://www.w3.org/2000/svg">
<rect x="87.85" y="17.93" width="693.26" height="439.04" fill="none" fill-rule="evenodd" stroke="#8891A2" stroke-miterlimit="10"/>
<line x1="87.85" x2="781.1" y1="31.93" y2="31.93" fill="none" fill-rule="evenodd" stroke="#8891A2" stroke-miterlimit="10"/>
<circle cx="95.46" cy="24.4" r="3.42" fill="none" fill-rule="evenodd" stroke="#8891A2" stroke-miterlimit="10"/>
<circle cx="104.74" cy="24.4" r="3.42" fill="none" fill-rule="evenodd" stroke="#8891A2" stroke-miterlimit="10"/>
<circle cx="113.99" cy="24.4" r="3.42" fill="none" fill-rule="evenodd" stroke="#8891A2" stroke-miterlimit="10"/>
<rect x="88.61" y="32.47" width="152.95" height="423.8" fill="#F7F8F8" fill-rule="evenodd"/>
<rect x="241.56" y="32.47" width="539.55" height="423.8" fill="#E5E5E4" fill-rule="evenodd"/>
	<path d="m144 61.16c-0.23-0.06-0.5 0.12-0.93 0.61-0.58 0.64-1.25 1.57-1.69 2.5-0.12 0.26-0.12 0.44 0 0.52 0.2 0.15 0.82 0.32 1.22 0.32 0.44 0 0.84-0.06 1.31-0.58 0.35-0.35 1.19-1.14 1.95-1.89 0.23-0.23 0.09-0.41-0.2-0.64-0.32-0.29-1.05-0.67-1.66-0.84z" fill="#7DD0DF"/>
	<path d="m171.43 66.31c-0.64-0.38-1.34-0.47-2.48-0.29 3.23-4.92 4.25-6.47 4.25-8.01 0-1.14-1.08-1.46-2.36-2.04-0.2-0.09-0.41-0.06-0.52 0.17-2.42 4.72-5.3 8.91-8.91 14.44-0.57 0.88-0.97 1.55-1.25 2.09-1.07 0.99-2.05 1.51-2.97 1.7 0.7-1.69 2.74-3.67 2.74-4.98 0-0.38-0.29-0.87-0.87-1.16-0.41-0.2-0.7-0.29-1.08-0.29-0.64 0-1.22 0.35-3.49 2.1 0.52-0.9 0.87-1.86 0.87-2.53 0-0.55-0.23-0.84-0.64-1.16s-0.84-0.44-1.19-0.44c-0.55 0-1.57 0.5-3.32 1.83 0.06-0.47-0.09-0.79-0.61-1.05-0.84-0.47-1.51-1.16-2.01-1.16-0.47 0-1.16 0.84-4.37 5.07-0.62 0.82-1.25 1.74-1.67 2.54-1.42 1.3-2.56 1.72-3.49 1.8 0.35-1.05 1.31-2.59 2.91-4.86 1.02-1.43 1.6-2.45 1.6-3.03 0-1.11-1.83-1.25-2.56-1.25-0.23 0-0.35 0.06-0.47 0.2-0.64 0.73-2.1 2.74-3.32 4.6-2.18 3.38-2.13 4.05-0.82 5.24 0.82 0.67 1.22 0.96 2.07 0.96 1.06 0 2.39-0.84 3.63-1.96 0.04 0.56 0.28 0.97 0.62 1.2 0.2 0.15 0.9 0.58 1.22 0.7 0.61 0.2 1.14 0.09 1.92-1.14 2.74-4.22 5.68-6.73 7.4-7.75-1.78 2.45-3.82 4.75-4.37 6.09-0.35 0.82-0.23 1.46 0.41 2.13 0.47 0.47 1.08 0.84 1.46 0.84s0.73-0.38 1.66-1.57c1.51-2.01 2.33-3.2 3.17-3.87-0.47 0.76-0.76 1.49-0.84 2.16-0.12 0.84 0.73 2.53 2.39 2.53 0.98 0 2.23-0.63 3.45-1.66 0 0.03 0.01 0.06 0.01 0.09 0.17 0.73 1.43 1.81 2.1 1.81 0.32 0 0.52-0.17 1.14-1.11 0.67 0.96 1.31 1.54 2.07 1.54 2.62 0 5.39-1.66 7.05-4.98 0.72-1.43 1.22-4.37-0.53-5.54zm-7.37 7.66l-0.17 0.03c0.73-1.22 1.83-3 3-4.81 1.28-0.93 2.62-1.49 3.61-1.72 0.08 2.25-2.8 5.8-6.44 6.5z" fill="#848484"/>
	<path d="m184.91 65.56c0.35-0.26 0.55-0.44 0.55-0.73s-0.09-0.76-0.32-0.76c-0.15 0-0.41 0.15-0.93 0.44-1.63 0.93-3.09 1.83-4.69 3.2 0.32-1.28 0.06-1.69-0.35-1.92-0.38-0.2-1.05-0.38-1.57-0.41-0.35-0.03-0.49 0.03-0.58 0.2-0.38 0.73-1.6 2.62-3.38 5.01-1.4 1.86-2.04 2.94-2.04 3.93 0 0.64 0.29 1.02 0.96 1.49 0.64 0.44 1.14 0.64 1.57 0.64 0.47 0 0.64-0.17 1.89-1.89 3.36-4.57 6.16-7.22 8.89-9.2z" fill="#848484"/>
	<path d="m190.13 63.66c0.44 0.06 1.19 0.15 1.98 0.06 0.41-0.03 0.87-0.12 1.43-0.32 1.05-0.38 2.71-1.28 3.41-1.89 0.38-0.32 0.61-0.73 0.41-1.02-0.23-0.32-1.05-0.87-1.54-1.05-0.23-0.09-0.32-0.06-0.47 0.09-1.14 1.11-3.26 2.62-5.33 3.82-0.16 0.08-0.21 0.26 0.11 0.31z" fill="#7DD0DF"/>
	<path d="m207.72 64.28c-0.79 0.2-1.95 0.44-3.61 0.67 1.75-2.74 2.01-3.38 0.79-4.4-0.52-0.47-0.67-0.93-1.08-0.93-0.23 0-0.58 0.23-1.46 1.4-1.11 1.49-2.1 2.85-3.17 4.43-0.79 0.09-1.57 0.17-2.27 0.29-0.47 0.06-0.55 0.15-0.55 0.26 0 0.23 0.32 0.82 0.7 1.16 0.23 0.17 0.44 0.26 0.76 0.29-0.61 0.96-1.28 1.98-2.04 3.15-0.52 0.79-0.88 1.45-1.1 2.03-1.14 1.21-2.03 1.76-2.92 1.96 0.09-0.82 0.61-2.04 1.19-3.26 0.93-1.89 1.16-2.48 1.16-2.85 0-0.32-0.29-0.67-0.96-0.99-0.87-0.41-1.4-0.55-1.66-0.55-0.32 0-0.47 0.12-0.64 0.35-0.47-0.79-1.19-1.57-2.07-1.57-1.66 0-4.54 1.49-6.44 3.96-1.63 2.13-1.69 3.61-1.05 4.72 0.7 1.22 1.86 2.18 3.03 2.18 0.93 0 2.21-0.87 3.79-3.06-0.5 2.48 0.5 3.26 1.83 3.26 1.43 0 3-0.96 4.45-2.46 0.09 0.59 0.41 1.06 0.91 1.53 0.82 0.79 1.66 0.99 2.3 0.99 2.01 0 4.22-1.63 5.47-2.94 0.23-0.23 0.5-0.61 0.58-0.93 0.12-0.38 0.2-0.64 0.2-0.79 0-0.12-0.12-0.2-0.26-0.03-1.34 1.31-3.41 2.42-5.33 2.53 0.26-1.08 1.51-3.12 4.69-7.95 0.99-0.23 1.75-0.41 2.21-0.52 1.4-0.35 1.92-0.67 2.24-0.96 0.17-0.17 0.52-0.61 0.61-0.79 0.07-0.13-0.01-0.27-0.3-0.18zm-22.95 10.19c-0.17-1.16 0.73-2.82 2.1-4.19 0.99-0.99 2.24-1.83 3.49-2.16-2.16 3.96-3.87 5.74-5.59 6.35z" fill="#848484"/>
	<path d="m138.25 61.34l0.32-0.56c0.17-0.26 0.33-0.51 0.48-0.74 6.88-0.68 14.46-1.39 15.18-2.04 0.96-0.87 1.51-3.95 0.16-4.34-1.33-0.38-6.8 0.41-12.57 1.45 0 0 1.13-1.36 0.88-1.8-0.46-0.81-3.45-0.3-3.73-0.23-0.11 0.03-0.99 1.34-2.04 2.95-3.3 0.65-6.32 1.3-8.3 1.76-4.82 1.12-8.08 3.62-5.72 6.42 1.5 1.78 5.05 1.04 4.78-0.12-0.13-0.57-2.15-0.16-2.02-1.2s3.02-1.65 4.14-1.81c1.09-0.16 2.54-0.34 4.18-0.51-4.64 6.79-8.86 13.1-11.15 16.91-0.17 0.29 0 0.35 0.17 0.35 0.58 0 1.28-0.26 2.74-0.32 0.7 0 1.19-0.15 1.89-1.05 3.27-4.27 8-11.17 10.57-15.11l0.04-0.01z" fill="#848484"/>
	<path d="m177.08 116.68l-0.38-0.38c0.33-0.07 0.46 0.05 0.38 0.38z" fill="#fff"/>
	<path d="m138.7 152.79l0.38 0.38c-0.33 0.07-0.46-0.06-0.38-0.38z" fill="#fff"/>
	<path d="m176.7 153.17l0.38-0.38c0.08 0.32-0.05 0.45-0.38 0.38z" fill="#fff"/>
	<path d="m156.19 129.73c0 4.83 0 4.83-4.85 4.83-5.07 0-5.07 0-5.07-4.99 0-4.93 0-4.93 4.94-4.93 4.98 0 4.98 0 4.98 5.09zm-1.91-0.05c-0.05-3.38 0.44-3.13-2.53-3.11-3.97 0.02-3.54-0.51-3.54 2.66 0 3.78-0.48 3.41 2.61 3.4 3.93-0.01 3.4 0.52 3.46-2.95z" fill="#C3C5C8"/>
	<path d="m168.34 129.67c0 4.89 0 4.89-4.97 4.89-4.95 0-4.95 0-4.95-4.93 0-4.99 0-4.99 5.07-4.99 4.84 0 4.84 0 4.84 4.83 0.01 0.07 0.01 0.13 0.01 0.2zm-1.92-0.05c-0.04-3.25 0.42-3.07-2.4-3.05-4.05 0.03-3.67-0.51-3.66 2.54 0.01 3.93-0.51 3.53 2.67 3.52 3.86-0.01 3.34 0.53 3.39-3.01z" fill="#C3C5C8"/>
	<path d="m151.38 136.79c4.82 0 4.82 0 4.82 4.87 0 5.05 0 5.05-5 5.05-4.91 0-4.91 0-4.91-4.95-0.01-4.97-0.01-4.97 5.09-4.97zm-3.18 4.86c0.05 3.36-0.45 3.14 2.52 3.13 3.96-0.02 3.56 0.5 3.55-2.65-0.01-3.83 0.5-3.41-2.79-3.4-3.71 0-3.23-0.49-3.28 2.92z" fill="#C3C5C8"/>
	<path d="m159.98 146.68c-1.12 0.18-1.61-0.21-1.57-1.43 0.07-2.34 0.06-4.69 0.01-7.03-0.02-1.06 0.37-1.5 1.44-1.44 1.01 0.06 2.03 0.03 3.04 0.01 0.71-0.01 1.24 0.11 1.31 0.98 0.04 0.58 0.43 0.89 1.01 0.93 0.7 0.04 0.85-0.4 0.86-0.97 0.01-0.95 0.69-0.89 1.33-0.89 0.77 0 0.97 0.45 0.94 1.11-0.01 0.13 0 0.25 0 0.38 0.16 4.19-1.11 5.19-5.26 4.23-0.65-0.15-0.81-0.51-0.82-1.06-0.02-0.8-0.55-0.89-1.18-0.83-0.71 0.06-0.72 0.59-0.73 1.11l-0.03 4.56c-0.12 0.1-0.24 0.22-0.35 0.34z" fill="#C3C5C8"/>
	<path d="m168.33 145.74c0.07 0.65-0.26 0.97-0.98 0.97-0.67 0-1.29-0.01-1.27-0.95 0.01-0.61 0.25-0.95 0.9-0.94 0.6 0.01 1.32-0.13 1.35 0.92z" fill="#C3C5C8"/>
	<path d="m163.38 146.68c-0.7 0.04-1.07-0.16-1.1-0.83-0.03-0.71 0.24-1.06 0.98-1.04 0.65 0.01 0.9 0.33 0.89 0.94-0.01 0.59-0.2 1-0.77 0.93z" fill="#C5C7C9"/>
	<path d="m159.98 146.68c0.11-0.12 0.23-0.23 0.34-0.35-0.11 0.11-0.23 0.23-0.34 0.35z" fill="#CACDCF"/>
	<path d="m154.28 129.68c-0.06 3.47 0.47 2.93-3.46 2.94-3.1 0.01-2.61 0.38-2.61-3.4 0-3.17-0.43-2.64 3.54-2.66 2.97-0.01 2.48-0.25 2.53 3.12zm-1.95-0.11c0.12-0.75-0.26-1.07-1.06-1.08-0.77-0.01-1.16 0.26-1.16 1.09 0 0.77 0.25 1.16 1.08 1.15 0.78-0.02 1.23-0.26 1.14-1.16z" fill="#F5F6F6"/>
	<path d="m166.42 129.62c-0.06 3.54 0.47 3-3.39 3.01-3.18 0.01-2.66 0.41-2.67-3.52-0.01-3.05-0.39-2.51 3.66-2.54 2.82-0.02 2.36-0.2 2.4 3.05zm-3.2-0.76c-0.59-0.02-0.93 0.21-0.94 0.85 0 0.54 0.07 1.01 0.76 1 0.66 0 1.04-0.34 1.08-1 0.06-0.65-0.31-0.88-0.9-0.85z" fill="#F6F6F6"/>
	<path d="m148.2 141.65c0.05-3.41-0.43-2.92 3.28-2.93 3.29 0 2.78-0.43 2.79 3.4 0.01 3.15 0.41 2.63-3.55 2.65-2.97 0.02-2.48 0.23-2.52-3.12zm2.77-1c-0.71-0.08-0.88 0.39-0.86 1.04 0.01 0.63 0.25 1.15 0.94 1.15s0.92-0.51 0.94-1.15c0.03-0.67-0.19-1.09-1.02-1.04z" fill="#F6F6F6"/>
	<path d="m152.33 129.57c0.08 0.91-0.37 1.15-1.13 1.16-0.83 0.01-1.08-0.38-1.08-1.15 0-0.83 0.38-1.1 1.16-1.09 0.79 0 1.18 0.32 1.05 1.08z" fill="#C3C5C8"/>
	<path d="m163.22 128.86c0.59-0.02 0.96 0.21 0.91 0.85-0.05 0.66-0.42 1-1.08 1-0.69 0-0.77-0.46-0.76-1-0.01-0.64 0.34-0.88 0.93-0.85z" fill="#C5C7C9"/>
	<path d="m150.97 140.65c0.83-0.05 1.05 0.37 1.02 1.04-0.03 0.63-0.25 1.15-0.94 1.15s-0.93-0.51-0.94-1.15c-0.02-0.65 0.15-1.12 0.86-1.04z" fill="#C5C7C9"/>
<text transform="translate(137.79 167.19)" fill="#C3C5C8" font-family="'OpenSans'" font-size="9.1218px">FACTURAS</text>
<text transform="translate(140 237.45)" fill="#C3C5C8" font-family="'OpenSans'" font-size="9.1218px">CLIENTES</text>
<text transform="translate(138.11 307.88)" fill="#C3C5C8" font-family="'OpenSans'" font-size="9.1218px">SERVICIOS</text>
<text transform="translate(138.37 375.77)" fill="#C3C5C8" font-family="'OpenSans'" font-size="9.1218px">REPORTES</text>
	<path d="m132.04 186.97l-0.38 0.38c-0.07-0.32 0.06-0.45 0.38-0.38z" fill="#fff"/>
	<path d="m184.11 187.35l-0.38-0.38c0.33-0.07 0.46 0.06 0.38 0.38z" fill="#fff"/>
	<path d="m153.37 220.04c-2.34 0-4.69-0.09-7.03 0.03-1.48 0.07-1.78-0.5-1.8-1.86-0.04-3.3 1.44-5.72 4.13-7.38 1.08-0.67 1.03-0.93 0.32-1.89-1.86-2.52-1.24-5.4 1.41-7.44 1.94-1.49 5.24-0.95 6.99 1.14 1.04 1.24 1.35 4.53 0.37 5.9-0.81 1.14-0.88 1.78 0.47 2.56 2.7 1.58 3.55 4.26 3.84 7.2 0.13 1.28-0.29 1.83-1.68 1.77-2.33-0.1-4.68-0.03-7.02-0.03z" fill="#C4C5C7"/>
	<path d="m168.96 216.6c-0.25 0-0.51-0.02-0.76 0.01-1.63 0.15-2.78 0.15-2.85-2.21-0.09-2.74-1.88-4.75-4.4-5.91-0.93-0.43-1.68-0.76-0.23-1.43 0.88-0.41 0.58-0.78 0.25-1.4-1.19-2.23-1.04-3.51 0.37-5.21 1.41-1.69 3.29-1.55 5.06-1.15 2.29 0.53 3.3 3.64 2.06 6.14-0.48 0.96-0.32 1.42 0.56 1.97 2.87 1.81 4.12 5.17 3.29 8.41-0.16 0.64-0.54 0.78-1.09 0.79-0.74-0.01-1.5-0.01-2.26-0.01z" fill="#C3C6C9"/>
	<path d="m136.22 253.87l-0.38 0.38c-0.07-0.33 0.06-0.46 0.38-0.38z" fill="#fff"/>
	<path d="m179.93 254.25l-0.38-0.38c0.33-0.08 0.46 0.05 0.38 0.38z" fill="#fff"/>
	<path d="m147.63 279.91c0.6-2.15-1.14-3.7-2.26-5.48-1.28-2.04-1.22-2.44 1.05-3.2 1.09-0.36 1.17-1.01 1.24-1.97 0.11-1.32-1-3.44 1.82-3.34 0.11 0 0.34-0.26 0.33-0.39-0.05-1.75 1.22-1.41 2.24-1.41 1.01 0 1.94 0.16 2.15-1.37 0.13-0.9 1.29-0.46 1.99-0.49 0.57-0.02 1.52-0.32 1.59 0.53 0.12 1.43 0.99 1.35 1.97 1.34 1.08-0.01 2.43-0.4 2.39 1.46 0 0.05 0.05 0.15 0.08 0.16 2.76 0.45 1.58 2.62 1.7 4.13 0.1 1.2 0.94 1.19 1.65 1.46 2.1 0.78 2.19 1.07 1.01 2.94-1.29 2.04-3.2 3.84-2.63 6.63 0.11 0.52-0.11 1.54 0.54 1.37 1.3-0.34 1.87 2.01 3.34 0.68 0.85-0.77 3.36 0.08 3.52 1.17 0.12 0.81-0.48 1.34-1.34 1.4-0.14 0.01-0.28-0.25-0.43-0.35-1.3-0.84-1.78 1.56-3.1 0.77-0.85-0.51-1.67-1.77-2.74-0.18-0.44 0.65-1.17 0.48-1.62-0.1-0.84-1.08-1.53-0.9-2.44-0.03-1.2 1.16-1.79-0.49-2.68-0.69-0.92-0.21-1.45 1.93-2.48 0.96-1.27-1.19-2.14-1.21-3.18 0.08-0.07 0.08-0.32 0.15-0.33 0.13-1.58-2.42-4.23 1.26-5.89-1.04-0.45-0.63-0.85 0.17-1.19 0.45-0.44 0.35-0.86 0.89-1.48 0.49-0.79-0.52-1.65-1.12-1.9-2.03-0.17-0.6 0.6-1.41 1.15-1.03 1.02 0.69 1.53 0.21 2.27-0.34 0.58-0.43 1.34-0.36 1.92 0.18 1.34 1.24 1.69 0.52 1.72-0.85 0.03-0.6 0.02-1.17 0.02-2.04zm8.22-13.88c-2.64 0-2.63 0-4.33 1.9-0.15 0.17-0.42 0.31-0.64 0.34-0.68 0.08-1.14 0.38-0.86 1.1 0.33 0.84 1 0.33 1.43 0.12 2.98-1.45 5.93-1.33 8.88 0.06 0.17 0.08 0.34 0.18 0.53 0.21 0.51 0.09 1.06 0.18 1.17-0.55 0.08-0.59 0.07-1.22-0.75-1.22-0.86-0.01-1.48-0.16-1.48-1.22 0-0.69-0.57-0.73-1.09-0.73-0.97-0.01-1.92-0.01-2.86-0.01z" fill="#C3C6C9"/>
	<path d="m171.5 288.51c-0.34 0.61-0.68 1.14-1.46 0.99-0.17-0.03-0.34-0.17-0.49-0.28-1.35-0.97-1.79 1.48-2.91 0.82-0.93-0.54-1.62-1.84-2.73-0.31-0.03 0.05-0.13 0.11-0.16 0.09-1.99-1.18-4.12-0.07-6.19-0.28-1.72-0.17-3.63-0.44-5.32-0.08-1.02 0.22-1.83 0.76-2.68-0.12-0.61-0.62-1.07-0.44-1.59 0.09-0.71 0.74-1.45 0.99-2.2 0.01-0.57-0.75-1.06-0.5-1.72 0.01-1.18 0.91-3.31 0.01-3.58-1.41-0.1-0.53 0.24-0.82 0.55-1.13 0.41-0.41 0.81-0.32 1.14 0.07 0.57 0.7 1.04 0.48 1.52-0.1 0.16-0.19 0.45-0.53 0.54-0.49 1.85 0.88 3.88-0.15 5.65 0.45 0.84 0.28 1.27 0.7 1.99-0.11 0.71-0.8 1.56-0.87 2.19 0.15 0.52 0.84 1.01 0.82 1.63 0.14 0.17-0.19 0.34-0.39 0.56-0.51 0.26-0.15 0.79-0.34 0.83-0.29 1.46 2.44 3.6-1.1 5.08 0.59 0.68 0.77 1.19 0.72 1.8-0.03 0.67-0.82 1.42-0.77 2.06 0.03 0.77 0.97 1.43 0.8 2.11-0.07 0.49-0.63 1.08-0.59 1.66-0.17 0.68 0.55 1.4 1.08 1.72 1.94z" fill="#C5C7CA"/>
	<path d="m155.85 266.03h2.84c0.52 0 1.09 0.04 1.09 0.73 0 1.06 0.63 1.21 1.48 1.22 0.82 0.01 0.84 0.63 0.75 1.22-0.1 0.73-0.66 0.63-1.17 0.55-0.18-0.03-0.36-0.13-0.53-0.21-2.95-1.39-5.9-1.51-8.88-0.06-0.43 0.21-1.1 0.72-1.43-0.12-0.28-0.71 0.18-1.01 0.86-1.1 0.23-0.03 0.49-0.17 0.64-0.34 1.72-1.89 1.71-1.89 4.35-1.89z" fill="#F5F5F5"/>
	<path d="m135.08 323.95l-0.38 0.38c-0.07-0.32 0.06-0.45 0.38-0.38z" fill="#fff"/>
	<path d="m181.07 324.33l-0.38-0.38c0.33-0.07 0.46 0.06 0.38 0.38z" fill="#fff"/>
	<path d="m157.82 358.94c-4.74 0-9.49-0.04-14.23 0.03-1.34 0.02-1.73-0.44-1.72-1.75 0.05-6.9 0.02-13.79 0.03-20.69 0-0.65-0.23-1.49 0.88-1.54 1.24-0.06 1.03 0.85 1.03 1.58 0.01 6.07 0.08 12.15-0.04 18.22-0.04 1.88 0.57 2.29 2.35 2.27 8.6-0.09 17.21-0.05 25.81-0.03 0.6 0 1.33-0.27 1.76 0.35 0.18 0.26 0.15 0.76 0.04 1.09-0.21 0.63-0.83 0.46-1.3 0.47h-14.61z" fill="#C3C5C8"/>
	<path d="m165.87 345.99c0-2.59 0.06-5.19-0.02-7.77-0.05-1.74 1.15-1.33 2.07-1.31 0.9 0.01 2.13-0.48 2.12 1.27-0.04 5.12-0.05 10.24 0 15.36 0.02 1.83-1.2 1.54-2.33 1.6-1.14 0.06-1.94-0.04-1.87-1.56 0.11-2.53 0.03-5.07 0.03-7.59z" fill="#C3C6C9"/>
	<path d="m153.73 346.95c0-2.15 0.06-4.31-0.02-6.45-0.06-1.73 1.15-1.33 2.08-1.32 0.9 0.02 2.13-0.48 2.11 1.28-0.05 4.37-0.04 8.73 0 13.1 0.01 1.49-0.85 1.6-1.98 1.57-1.09-0.03-2.24 0.15-2.2-1.54 0.04-2.21 0.01-4.43 0.01-6.64z" fill="#C3C6C9"/>
	<path d="m159.8 348.95v-3.79c0-1.98 1.79-3.01 3.64-2.14 0.53 0.25 0.5 0.68 0.51 1.11 0.01 3.16-0.01 6.31 0.01 9.47 0.01 2.02-1.49 1.39-2.58 1.52-1.27 0.16-1.67-0.41-1.6-1.63 0.08-1.5 0.02-3.02 0.02-4.54z" fill="#C3C5C8"/>
	<path d="m151.81 350.93c0 0.63-0.07 1.27 0.01 1.9 0.23 1.79-0.64 2.32-2.3 2.33-1.32 0.01-2.01-0.23-1.89-1.76 0.13-1.64 0.08-3.29 0.02-4.94-0.07-1.74 1.18-1.3 2.09-1.3s2.19-0.44 2.08 1.3c-0.06 0.82-0.01 1.65-0.01 2.47z" fill="#C3C5C8"/>
		<path d="m682.1 43.17h3.29c0.11 0.25 0.34 0.15 0.53 0.2 3.83 0.85 6.58 3.04 8.13 6.66 0.37 0.85 0.58 1.77 0.86 2.66v3.11c-0.41 1-0.51 2.09-1.02 3.05-0.78 1.5-1.61 2.95-3.13 3.85-1.1-0.85-2.42-1.31-3.64-1.95-0.71-0.37-1.05-0.88-1.07-1.7-0.04-1.53 1-2.57 1.67-3.76 0.27-0.48 0.63-0.88 0.57-1.45-0.16-1.62-0.39-3.22-0.48-4.85-0.06-0.99-0.75-1.67-1.66-2.03-1.5-0.6-3.03-0.6-4.54-0.03-0.99 0.37-1.63 1.09-1.78 2.15-0.2 1.41-0.15 2.83-0.4 4.26-0.28 1.6 0.84 2.91 1.56 4.26 0.61 1.14 0.31 2.47-0.79 3.12-1.09 0.64-2.28 1.11-3.28 1.9-0.39 0.09-0.57-0.24-0.77-0.45-2.92-2.98-4.03-6.53-3.01-10.59 1.04-4.13 3.74-6.75 7.79-8.01 0.38-0.14 0.84-0.08 1.17-0.4z" fill="#636C8C"/>
		<path d="m676.9 62.61c1.01-0.78 2.19-1.26 3.28-1.9 1.1-0.64 1.4-1.98 0.79-3.12-0.72-1.35-1.84-2.66-1.56-4.26 0.25-1.43 0.2-2.85 0.4-4.26 0.15-1.06 0.79-1.78 1.78-2.15 1.51-0.56 3.04-0.57 4.54 0.03 0.92 0.36 1.61 1.04 1.66 2.03 0.09 1.63 0.32 3.24 0.48 4.85 0.06 0.57-0.3 0.97-0.57 1.45-0.67 1.18-1.71 2.22-1.67 3.76 0.02 0.83 0.36 1.33 1.07 1.7 1.22 0.64 2.54 1.09 3.64 1.95-1.33 1.43-3.12 1.91-4.91 2.39-0.3 0.08-0.64 0.05-0.81 0.39h-2.42c-0.34-0.51-0.93-0.35-1.39-0.5-1.58-0.5-3.2-0.96-4.31-2.36z" fill="#E8EBEC"/>
<text transform="translate(704.17 59.392)" fill="#575757" font-family="'MyriadPro-Regular'" font-size="9.1218px">L</text>
<text transform="translate(708.34 59.392)" fill="#575757" font-family="'MyriadPro-Regular'" font-size="9.1218px">o</text>
<text transform="translate(713.35 59.392)" fill="#575757" font-family="'MyriadPro-Regular'" font-size="9.1218px">r</text>
<text transform="translate(716.24 59.392)" fill="#575757" font-family="'MyriadPro-Regular'" font-size="9.1218px">e</text>
<text transform="translate(720.81 59.392)" fill="#575757" font-family="'MyriadPro-Regular'" font-size="9.1218px">n</text>
<text transform="translate(725.88 59.392)" fill="#575757" font-family="'MyriadPro-Regular'" font-size="9.1218px">a</text>
<text transform="translate(730.27 59.392)" fill="#575757" font-family="'MyriadPro-Regular'" font-size="9.1218px"> </text>
<text transform="translate(732.21 59.392)" fill="#575757" font-family="'MyriadPro-Regular'" font-size="9.1218px">P</text>
<text transform="translate(736.82 59.392)" fill="#575757" font-family="'MyriadPro-Regular'" font-size="9.1218px">a</text>
<text transform="translate(741.14 59.392)" fill="#575757" font-family="'MyriadPro-Regular'" font-size="9.1218px">y</text>
<text transform="translate(745.4 59.392)" fill="#575757" font-family="'MyriadPro-Regular'" font-size="9.1218px">รก</text>
<text transform="translate(749.8 59.392)" fill="#575757" font-family="'MyriadPro-Regular'" font-size="9.1218px">n</text>
<text transform="translate(267.81 100.4)" fill="#575757" font-family="'OpenSans'" font-size="16.723px">Reportes</text>
<text transform="translate(267.81 126)" fill="#5083B7" font-family="'OpenSans'" font-size="9.1218px">Reportes</text>
<text transform="translate(315.05 126)" fill="#828282" font-family="'OpenSans'" font-size="9.1218px">/   Historial de Reportes</text>
<rect x="257.24" y="138.29" width="510.15" height="53" fill="#fff" fill-rule="evenodd"/>
<rect x="257.24" y="203.95" width="510.15" height="238.59" fill="#fff" fill-rule="evenodd"/>
<text transform="translate(282.73 164.79)" fill="#010101" font-family="'OpenSans'" font-size="18.244px">450</text>
<text transform="translate(359.38 164.79)" fill="#010101" font-family="'OpenSans'" font-size="18.244px">$2,675,790.87</text>
<text transform="translate(540.97 164.79)" fill="#010101" font-family="'OpenSans'" font-size="18.244px">$5,946.20</text>
<text transform="translate(653.83 164.79)" fill="#010101" font-family="'OpenSans'" font-size="18.244px">$72,486.70</text>
<text transform="translate(279.98 180.35)" fill="#828282" font-family="'OpenSans'" font-size="9.1218px">Facturas</text>
<text transform="translate(384.99 180.35)" fill="#828282" font-family="'OpenSans'" font-size="9.1218px">Total Facturado</text>
<text transform="translate(546.35 180.35)" fill="#828282" font-family="'OpenSans'" font-size="9.1218px">Ticket Promedio</text>
<text transform="translate(657.7 180.35)" fill="#828282" font-family="'OpenSans'" font-size="9.1218px">Facturas por Cobrar</text>
		<rect x="296.05" y="278.91" width="12.73" height="37.93" fill="#6FC05D" fill-rule="evenodd"/>
		<rect x="312.53" y="289.47" width="12.73" height="27.37" fill="#E95B39" fill-rule="evenodd"/>
		<rect x="333.12" y="265.08" width="12.73" height="51.76" fill="#6FC05D" fill-rule="evenodd"/>
		<rect x="349.6" y="300.27" width="12.73" height="16.57" fill="#E95B39" fill-rule="evenodd"/>
		<rect x="368.76" y="272.41" width="12.73" height="44.43" fill="#6FC05D" fill-rule="evenodd"/>
		<rect x="385.24" y="310.1" width="12.73" height="6.74" fill="#E95B39" fill-rule="evenodd"/>
		<rect x="403.72" y="256.3" width="12.73" height="60.54" fill="#6FC05D" fill-rule="evenodd"/>
		<rect x="420.2" y="290.96" width="12.73" height="25.88" fill="#E95B39" fill-rule="evenodd"/>
		<rect x="438.94" y="267.41" width="12.73" height="49.43" fill="#6FC05D" fill-rule="evenodd"/>
		<rect x="455.42" y="277.12" width="12.73" height="39.72" fill="#E95B39" fill-rule="evenodd"/>
		<rect x="475.64" y="259.04" width="12.73" height="57.8" fill="#6FC05D" fill-rule="evenodd"/>
		<rect x="492.11" y="293.08" width="12.73" height="23.76" fill="#E95B39" fill-rule="evenodd"/>
		<text transform="translate(300.44 327.45)" fill="#828282" font-family="'OpenSans'" font-size="6.0812px">Enero</text>
		<text transform="translate(336.25 327.45)" fill="#828282" font-family="'OpenSans'" font-size="6.0812px">Febrero</text>
		<text transform="translate(375.04 327.45)" fill="#828282" font-family="'OpenSans'" font-size="6.0812px">Marzo</text>
		<text transform="translate(412.66 327.45)" fill="#828282" font-family="'OpenSans'" font-size="6.0812px">Abril</text>
		<text transform="translate(445.23 327.45)" fill="#828282" font-family="'OpenSans'" font-size="6.0812px">Mayo</text>
		<text transform="translate(482.93 327.45)" fill="#828282" font-family="'OpenSans'" font-size="6.0812px">Junio</text>
		<rect x="509.88" y="246.83" width="12.73" height="70.01" fill="#6FC05D" fill-rule="evenodd"/>
		<rect x="526.36" y="306.58" width="12.73" height="10.26" fill="#E95B39" fill-rule="evenodd"/>
		<rect x="546.96" y="287.94" width="12.73" height="28.9" fill="#6FC05D" fill-rule="evenodd"/>
		<rect x="563.43" y="260.34" width="12.73" height="56.5" fill="#E95B39" fill-rule="evenodd"/>
		<rect x="582.6" y="252.66" width="12.73" height="64.18" fill="#6FC05D" fill-rule="evenodd"/>
		<rect x="599.07" y="313.47" width="12.73" height="3.37" fill="#E95B39" fill-rule="evenodd"/>
		<rect x="617.56" y="265.08" width="12.73" height="51.76" fill="#6FC05D" fill-rule="evenodd"/>
		<rect x="634.03" y="275.33" width="12.73" height="41.5" fill="#E95B39" fill-rule="evenodd"/>
		<rect x="652.77" y="246.83" width="12.73" height="70.01" fill="#6FC05D" fill-rule="evenodd"/>
		<rect x="669.25" y="296.98" width="12.73" height="19.86" fill="#E95B39" fill-rule="evenodd"/>
		<rect x="689.47" y="252.66" width="12.73" height="64.18" fill="#6FC05D" fill-rule="evenodd"/>
		<rect x="705.95" y="268.72" width="12.73" height="48.12" fill="#E95B39" fill-rule="evenodd"/>
		<text transform="translate(516.56 327.45)" fill="#828282" font-family="'OpenSans'" font-size="6.0812px">Julio</text>
		<text transform="translate(551.45 327.45)" fill="#828282" font-family="'OpenSans'" font-size="6.0812px">Agosto</text>
		<text transform="translate(581.38 327.45)" fill="#828282" font-family="'OpenSans'" font-size="6.0812px">Septiembre</text>
		<text transform="translate(621.49 327.45)" fill="#828282" font-family="'OpenSans'" font-size="6.0812px">Octubre</text>
		<text transform="translate(651.1 327.45)" fill="#828282" font-family="'OpenSans'" font-size="6.0812px">Noviembre</text>
		<text transform="translate(689.37 327.45)" fill="#828282" font-family="'OpenSans'" font-size="6.0812px">Diciembre</text>
<rect x="274" y="227.19" width="8.62" height="8.62" fill="#6FC05D" fill-rule="evenodd"/>
<rect x="274" y="238.21" width="8.62" height="8.62" fill="#E95B39" fill-rule="evenodd"/>
<text transform="translate(286.9 233.29)" fill="#010101" font-family="'OpenSans'" font-size="4.5609px">Facturas Pagadas</text>
<text transform="translate(286.9 244.5)" fill="#010101" font-family="'OpenSans'" font-size="4.5609px">Facturas por cobrar</text>
	<ellipse cx="749.86" cy="495.71" rx="77.28" ry="14.85" fill="#DFE4EA" fill-rule="evenodd"/>
	<path d="m738.24 222.27s-7.89 17.01-9.17 25.11-4.09 21.09 23.74 18.28l-6.58 14.43 19.25 3.45 3.29-5.13-0.4-18.6 6.58-13.23-11.15-25.18-25.56 0.87z" fill="#D8BD9F" fill-rule="evenodd"/>
	<path d="m730.68 359.83h52.92s9.14 30.2 7.94 64.6-2.65 59.42-2.65 59.42h-7.46s-18.04-96.47-23.82-96.47-22.37 96.47-22.37 96.47h-8.42c0.01 0.01-5.77-107.07 3.86-124.02z" fill="#63686C" fill-rule="evenodd"/>
	<path d="m798.64 301.75c-13.11-14.79-29.53-24.66-29.53-24.66s-11.01 6.62-22.55 1.8c0 0-3.85 1.92-5.41 3.85-1.56 1.92-19.61 25.62-28.87 20.69s6.74-27.18 6.74-27.18l-7.82-5.65s-27.18 43.9-8.54 52.2 37.53-8.11 37.53-8.11l-9.5 45.15h46.31l4.17 10.11s18.64-6.54 25.9-19.41c7.24-12.87 4.68-34-8.43-48.79zm-15.4 54.61l-6.37-45.47s16.72 4.81 18.52 19.97c1.8 15.15-12.15 25.5-12.15 25.5z" fill="#C6DC6B" fill-rule="evenodd"/>
	<path d="m781.13 490.17l20.69 0.78s-3.31-7.52-16.3-6.8l-4.09-0.3-0.3 6.32z" fill="#1E1E1E" fill-rule="evenodd"/>
	<path d="m735.06 489.01h-20.15s3.31-6.46 16.3-5.73l4.09-0.3-0.24 6.03z" fill="#1E1E1E" fill-rule="evenodd"/>
	<path d="m792.98 487.84c-0.11 0-0.22-0.04-0.3-0.12-0.17-0.17-0.18-0.44-0.01-0.61 1.17-1.21 2.94-3.57 2.72-4.7-0.05-0.26-0.2-0.43-0.48-0.56-0.34-0.15-0.67-0.15-1 0-1.26 0.58-2.23 3.17-2.5 4.12-0.06 0.2-0.24 0.34-0.46 0.31-0.21-0.02-0.37-0.19-0.38-0.4-0.04-0.7-0.33-2.66-1.21-3.38-0.27-0.22-0.59-0.3-0.94-0.25-0.28 0.04-0.31 0.14-0.33 0.18-0.22 0.64 1.19 2.68 2.62 4.21 0.16 0.17 0.15 0.45-0.02 0.61s-0.45 0.15-0.61-0.02c-0.56-0.6-3.31-3.64-2.81-5.09 0.1-0.29 0.36-0.65 1.01-0.74 0.61-0.09 1.15 0.05 1.61 0.43 0.66 0.54 1.04 1.49 1.26 2.32 0.5-1.15 1.3-2.58 2.39-3.08 0.56-0.26 1.14-0.26 1.72 0 0.53 0.24 0.87 0.65 0.97 1.18 0.37 1.95-2.6 5.11-2.95 5.46-0.07 0.08-0.19 0.13-0.3 0.13z" fill="#919191"/>
	<path d="m726.35 485.68c-0.11 0-0.22-0.04-0.3-0.12-0.17-0.17-0.18-0.44-0.01-0.61 1.17-1.21 2.94-3.57 2.72-4.7-0.05-0.26-0.2-0.43-0.48-0.56-0.34-0.15-0.67-0.15-1 0-1.26 0.58-2.23 3.17-2.5 4.12-0.06 0.2-0.24 0.34-0.46 0.31-0.21-0.02-0.37-0.19-0.38-0.4-0.04-0.7-0.33-2.66-1.21-3.38-0.27-0.22-0.59-0.3-0.94-0.25-0.28 0.04-0.31 0.14-0.33 0.18-0.22 0.64 1.19 2.68 2.62 4.21 0.16 0.17 0.15 0.45-0.02 0.61s-0.45 0.15-0.61-0.02c-0.56-0.6-3.31-3.64-2.81-5.09 0.1-0.29 0.36-0.65 1.01-0.75 0.61-0.09 1.15 0.05 1.61 0.43 0.66 0.54 1.04 1.49 1.26 2.32 0.5-1.15 1.3-2.58 2.39-3.08 0.56-0.26 1.14-0.26 1.72 0 0.53 0.24 0.87 0.65 0.97 1.18 0.37 1.95-2.6 5.11-2.95 5.46-0.08 0.09-0.19 0.14-0.3 0.14z" fill="#919191"/>
	<path d="m728.51 385.87c-0.2 0-0.4-0.1-0.53-0.28-0.21-0.29-0.13-0.7 0.16-0.9 0.05-0.03 4.61-3.27 9.23-9.48 4.56-6.12 4.21-14.23 4.2-14.32-0.02-0.36 0.26-0.66 0.61-0.68 0.38-0.02 0.66 0.26 0.68 0.61s0.38 8.67-4.46 15.15c-4.76 6.38-9.34 9.63-9.53 9.77-0.1 0.09-0.23 0.13-0.36 0.13z" fill="#8F959B"/>
	<path d="m787.54 385.87c0.2 0 0.4-0.1 0.53-0.28 0.21-0.29 0.13-0.7-0.16-0.9-0.05-0.03-4.61-3.27-9.23-9.48-4.56-6.12-4.21-14.23-4.2-14.32 0.02-0.36-0.26-0.66-0.61-0.68-0.38-0.02-0.66 0.26-0.68 0.61s-0.38 8.67 4.46 15.15c4.76 6.38 9.34 9.63 9.53 9.77 0.1 0.09 0.23 0.13 0.36 0.13z" fill="#8F959B"/>
	<polygon points="769.11 339.82 775.72 345.47 781.74 338.79 775.42 333.5" fill="#F6BDC1"/>
	<polygon points="743.24 368.38 749.86 374.16 741.86 377.71" fill="#FDEFA6" fill-rule="evenodd"/>
	<polygon points="743.24 368.38 769.11 339.82 775.72 345.47 749.86 374.16" fill="#fff" fill-rule="evenodd"/>
	<path d="m778.13 361.05l3.25 7.16s-5.77 1.63-6.8 1.84c-1.02 0.21-3.49-0.09-4.45 0.69s-2.89 2.35-6.98 2.32-3.85-2.44-3.85-3.76 0-5.53 0-5.53-4.09 1.86-5.59 2.41c-1.5 0.54-5.71 1.11-5.77 0.89-0.06-0.23 6.98-9.19 14.67-9.61 7.7-0.42 9.92 5.59 11.55 5.41 1.62-0.2 3.97-1.82 3.97-1.82z" fill="#D8BD9F"/>
	<path d="m765.18 319.95c-2.49 0-4.24-3.53-5.37-10.79-0.8-5.14-0.97-10.36-0.97-10.41l-0.02-0.67h12.82l-0.02 0.67c0 0.05-0.18 5.21-0.97 10.32-1.13 7.26-2.9 10.82-5.4 10.88h-0.07zm-5.03-20.56c0.34 8.24 2.07 19.28 5.03 19.28h0.03c1.7-0.04 4.55-5.32 5.09-19.28h-10.15z" fill="#B7AFB0"/>
	<path d="m741.5 296.37c0.84 0-0.68 17.84-1.6 17.84s0.76-17.84 1.6-17.84z" fill="#B7AFB0" fill-rule="evenodd"/>
	<path d="m776.34 305.03c0.91-0.15 1.72 5.53 0.88 5.61-0.84 0.09-1.88-5.45-0.88-5.61z" fill="#B7AFB0" fill-rule="evenodd"/>
	<path d="m722.34 262.77s6.9 0.08 5.85 5.61c-1.04 5.53-6.17 2.65-10.18 7.14l-5.75-4.16s12.08-21.5 14.25-21.26c2.16 0.25-4.17 12.67-4.17 12.67z" fill="#D8BD9F" fill-rule="evenodd"/>
	<path d="m762.91 251.31s3.29-8.02 7.62-6.5-2.73 14.67-2.17 15 6.74-2.08 9.22-8.02c2.49-5.93 4.85-19.55 0.96-24.22-3.61-4.33-17-18.2-40.82-6.01 0 0-0.32 0.8 1.28 0.8s21.81-0.24 21.89 4.65-2.49 22.45-2.49 22.45l4.51 1.85z" fill="#B86F31" fill-rule="evenodd"/>
<g fill-rule="evenodd">
	<path d="m17.49 483.95c-12.18 6.98 9.15 12.83 48.05 12.83s78.59-5.85 88.31-12.83c9.39-6.74-12.82-12.03-49.31-12.03-36.47 0-75.29 5.29-87.05 12.03" fill="#DFE4EA"/>
	<path d="m95.76 248.42c-3.69-9.19-13.54-11.36-24.36-13.49l-0.52 0.23c-2.02 4.17-1.47 9.46 1.36 13.13 1.76 2.28 4.45 4.09 7.1 6.64 1.8-2.46 3.34-5.1 4.6-7.88 11.78 11.97 13.48 29.59 11.48 33.83-1.07 2.27-5 3.7-8.91 4.65-0.11 3.1 0.02 5.87 0.98 8.07 0.17 0.39 0.38 0.78 0.72 1.03 1.25 0.91 8.34-0.21 11.05-3.22 5.39-6-0.84-36.35-3.5-42.99" fill="#8891A2"/>
	<path d="m83.77 260.5c-1.32-2.28-2.87-4.05-4.43-5.56-2.66 3.69-5.83 7.04-9.25 10.05-5.72 5.03-12.13 9.18-18.56 13.25l-3.57 13.38c10.73-0.95 21.34-2.86 31.94-4.76 1.72-0.31 4.16-0.72 6.62-1.31 0.26-7.46 2.01-16.83-2.75-25.05" fill="#30394A"/>
	<path d="m95.42 280.89c1.99-4.25 0.3-21.86-11.48-33.83-1.26 2.77-2.8 5.41-4.6 7.88 1.56 1.51 3.11 3.28 4.43 5.56 4.76 8.22 3.02 17.59 2.74 25.04 3.91-0.95 7.84-2.38 8.91-4.65m11.95 200.38c-1.46-1.44-2.9-2.91-4.29-4.42-2.21 0.19-4.4 0.03-6.4-0.89-4.19-1.92-6.37-6.53-9.85-9.57-1.57-1.36-3.39-2.43-4.95-3.79-0.43 6.76-0.45 13.52 0.47 20.11 0.47 0.03 0.95 0.02 1.41-0.08-0.28-7.95-0.54-9.09 0.55-10.98 1.09 0.88 2.04 2.25 3.17 5.48 1.21 3.45 3.3 7.22 6.26 8.34 1.7 0.64 12.23 0.46 13.27 0.24 2.08-0.43 2.77-2.08 0.36-4.44" fill="#5A6478"/>
	<path d="m81.88 462.61c-0.2-0.18-0.42-0.34-0.61-0.53-0.94-0.9-1.66-2-2.11-3.22-0.74 2.66-1.19 3.32-0.87 5.67 0.36 6.85 1.87 3.63 3.13 18.06 0.31 0.08 0.62 0.11 0.94 0.13-0.93-6.6-0.91-13.35-0.48-20.11" fill="#30394A"/>
	<path d="m80.25 404.03l-0.26 43.26h3.33c0.72-6.55 1.47-13.12 3.09-19.5 1.93-7.57 5.11-15.21 3.8-22.91-0.78-4.57-3.08-8.71-4.86-12.99s-3.06-9.08-1.69-13.51c0.46-1.51 1.23-2.93 1.41-4.5 0.37-3.15-1.64-6.04-3.63-8.51-4.74-5.87-9.98-11.33-15.64-16.31l2.36 8.68 10.54 35.4c1.04 3.54 1.57 7.21 1.55 10.89" fill="#BDD865"/>
	<path d="m83.25 447.9c-0.53 4.87-1.06 9.79-1.37 14.7 1.57 1.36 3.39 2.42 4.96 3.79 3.47 3.03 5.66 7.64 9.84 9.57 2 0.92 4.19 1.08 6.4 0.89-11.31-12.17-12.42-18.49-12.88-22.1l1.03-7.47h-7.91l-0.07 0.62" fill="#D8BD9F"/>
	<path d="m53.11 331.71l10.46 6.66 2.32 1.47 31.86 20.27-0.17-7.4c-1.75-22.5-4.03-44.96-7.64-67.24l-0.97 0.23c0.47-8.33 5.53-8.64 1.39-26.35-1.68-7.19-3.74-14.97-9.64-19.39-8.31-6.23-26.29-5.92-40.1 0.98l1.09 0.67c23.43 51.65 16.7 71.64 11.4 90.1" fill="#8891A2"/>
	<path d="m98.42 389.33l-0.68-29.22-31.86-20.27-2.32-1.47-10.46-6.66c-2.36 8.2-4.44 16.09-3.47 26.32 1.14 12.01 7.56 23.03 8.82 35.03 0.91 8.67-0.92 17.39-1.03 26.11-0.12 9.58 2.17 20.14 4.14 30.82h6.72l-2.81-101.24 2.68 9.01-2.36-8.69c5.66 4.99 10.9 10.45 15.64 16.31 2 2.47 4.01 5.36 3.63 8.51-0.18 1.56-0.95 2.99-1.42 4.49-1.37 4.43-0.09 9.23 1.69 13.51s4.09 8.42 4.86 12.99c1.31 7.7-1.87 15.34-3.8 22.91-1.63 6.38-2.37 12.95-3.09 19.5h7.91c6.12-43.79 7.47-47.17 7.21-57.96z" fill="#C6DC6B"/>
	<path d="m53.11 331.71l-7.23-4.6 7.23 4.6z" fill="#A01D52"/>
	<path d="m36.72 243.5c-2.53 15.76 9.69 30 9.47 45.72-0.05 3.4-0.58 6.41-1.16 9.05h-0.28c-5.29 15.92-7.33 24.67-6.77 37.63l7.89-8.8 7.23 4.6c5.31-18.46 12.03-38.45-11.4-90.1l-1.1-0.67c-0.86 0.43-1.71 0.89-2.55 1.37l-1.33 1.2z" fill="#5A6478"/>
	<path d="m56.3 319.74s5.4-17.94 28.74-24.49l-32.65-1.95 3.91 26.44z" fill="#5A6478"/>
	<path d="m57.42 419.17c0.11-8.72 1.94-17.44 1.03-26.12-1.26-12-7.68-23.01-8.82-35.03-0.97-10.23 1.11-18.12 3.47-26.32l-7.23-4.6-7.89 8.8c0.58 13.48 3.95 31.53 9.41 66.96l9.1 47.11h5.08c-1.98-10.66-4.27-21.23-4.15-30.8m-11.55-92.06l-7.89 8.8 7.89-8.8z" fill="#BDD865"/>
	<path d="m64.31 475c0.47-0.28 0.89-0.7 1.23-1.14 2.88-3.74 3.02-8.85 3-13.57-0.01-1.26 0-2.53 0.05-3.79-0.05-0.13-0.09-0.25-0.14-0.38l-0.17-6.13h-6.72c1.56 8.4 2.91 16.89 2.75 25.01" fill="#D8BD9F"/>
	<path d="m61.56 449.98h-5.08l2.31 11.94 0.09 0.06c0.02 0.34 0.05 0.68 0.07 1.02 2.1 5.19 0.67 12.13 4.12 12.35 0.44 0.01 0.86-0.11 1.23-0.35 0.17-8.12-1.18-16.61-2.74-25.02" fill="#B29377"/>
	<path d="m68.61 456.54l-0.02-0.04c-0.04 1.26-0.06 2.53-0.05 3.79 0.02 4.72-0.12 9.83-3 13.57-0.34 0.44-0.76 0.85-1.23 1.14-0.08 4.01-0.52 7.93-1.51 11.71 0.34 0.1 0.69 0.2 1.06 0.29 1.68 0.41 3.55 0.75 5.04-0.12 2.28-1.34 4.55-6.2 2.28-13.03-2.41-7.24 1.38-5.21-2.57-17.31" fill="#5A6478"/>
	<path d="m63.08 475.35c-3.45-0.22-2.02-7.16-4.12-12.35 0.03 0.38 0.05 0.75 0.08 1.13 2.12 10.27-7.81 19.12 3.76 22.58 0.98-3.78 1.43-7.71 1.51-11.72-0.36 0.25-0.79 0.37-1.23 0.36m2.79-274.76c-0.05 0.03 3.58-2.45 4.98-2.15 5.94 1.27 11.84 22.8 3.25 36.34-1.65 2.6-2.96 3.31-5.44 3.54-1.42 0.13-4.88 0.15-5.97-0.69-2.22-1.73-2.97-26.85 3.1-36.93" fill="#30394A"/>
	<path d="m73.54 207.66c-1.99-6.24-4.73-8.86-7.88-9.85-2.93 0.92-5.36 4.55-5.17 7.12 0.08 1.1 0.58 2.12 1.03 3.13 4.42 9.97-0.28 12.8-2.6 18.54-1.83 4.53-1.38 9.61-1.25 13.78l5.49 0.57 1.49-10.58c3.1 0.37 6 0.34 7.24-0.38 3.01-1.78 4.7-12.75 1.65-22.33" fill="#CEB39B"/>
	<path d="m58.92 226.59c2.32-5.73 7.02-8.57 2.6-18.54-0.45-1.01-0.94-2.02-1.02-3.12-0.19-2.57 2.24-6.2 5.17-7.12-1.21-0.36-2.46-0.55-3.72-0.54-3.18-0.03-6.48 0.06-9.3 1.53-3.82 2.83-4.27 6.56-4.43 10.32-0.12 2.67 0.16 5.12 0.65 7.34l-3.08 22.68 11.88 1.22c-0.13-4.16-0.58-9.24 1.25-13.77" fill="#B29377"/>
	<path d="m67.2 198.72c-9.56-2.94-10.3-1.1-11.6 5.05-2.57 12.22-1.73 24.87-0.67 37.32-6.8-0.9-12.15-1.31-13.77-0.43-8.73-10.48-6.62-37.33 12.63-47.18 7.31-3.74 13.4-0.93 15.85 2.11 1.21 1.5 0.02 4.73 0.02 4.73s-0.88-1.11-2.46-1.6" fill="#30394A"/>
	<path d="m47.96 291.61l0.65-2.42-1.14 0.27c-0.35-0.03-0.88-0.15-1.94-0.61-4.2-1.82-5.86-1.95-8.1 0.35-1.51 1.55-4.44 5.44-4.5 7.1-0.04 0.95 0.87 2.78 2.43 3.6 6.7 3.49 5.37 3.12 8.35 0.35 1.69-1.57 3.86-1.31 5.43-1.99 1.14-0.5 2.31-0.9 3.55-0.97l11.28-0.64-1.06-6.91c-4.96 0.78-9.95 1.4-14.95 1.87" fill="#D8BD9F"/>
	<path d="m62.92 289.74l1.06 6.91 27.86-1.57-0.63-11.01c-3.58 1.48-8.44 2.27-11.32 2.78-5.65 1.02-11.3 2.02-16.97 2.89" fill="#8891A2"/>
	<path d="m62.92 289.74l-0.58-3.74-13.74 3.19-0.65 2.42c5.01-0.47 10-1.09 14.97-1.87" fill="#B29377"/>
	<path d="m69.23 243.15c-0.37-0.55-0.17-1.35 0.31-1.81 1.64-1.59 5.4-0.27 6.38-0.73 1.93-0.92 1.28-5.21-0.38-6.71-1.42-1.28-6.36-1.47-8.61-1.26-0.83 0.08-1.13 0.22-1.6 0.84-0.85 1.11-2.18 3.98-1.38 4.87 2.31 2.57 1.67 1.57 5.28 4.8" fill="#D8BD9F"/>
	<path d="m39.22 241.34c-6.63 1.74-9.19 8.11-8.98 14.93 0.18 5.64 5.54 19.74 7.55 25 2.83 7.36 7.95 19.4 12.99 13.36 2.49-2.98 1.04-7.68-0.12-11.13-9.23-27.45-7.92-25.69-6.46-33.39 1.07-5.65-0.71-9.95-4.41-9" fill="#8891A2"/>
	<path d="m51.27 294.06c9.9-18.64 12.75-24.22 16.19-32.41l-9.97-4.61c-2.78 5.43-7.37 12.18-13.33 21.91l7.11 15.11z" fill="#8891A2"/>
	<path d="m83.27 447.29h-3.33l-0.05 8.14 0.02 0.04c-0.29 1.44-0.56 2.52-0.81 3.4 0.42 1.2 1.19 2.33 2.11 3.22 0.19 0.19 0.41 0.35 0.61 0.53 0.31-4.92 0.84-9.84 1.37-14.7l0.08-0.63" fill="#B29377"/>
	<path d="m69.51 254.29c2.23-12.53-3.84-17.66-4.24-19.7-0.58-3.01 3.25-5.32 2.6-12.03-0.1-1.06-0.87-0.91-1.34-0.05-2.24 4.17-4.25 8.46-6.03 12.85-1.94 4.79-1.08 5.28-0.3 8.81 0.88 3.99-0.15 7.87-2.71 12.86l9.98 4.61c1.05-2.83 1.61-4.92 2.04-7.35" fill="#D8BD9F"/>
</g>
</svg>
