<?xml version="1.0" encoding="UTF-8"?>
<svg enable-background="new 0 0 512 512" version="1.1" viewBox="0 0 512 512" xml:space="preserve" xmlns="http://www.w3.org/2000/svg">
<style type="text/css">
	.st0{fill-rule:evenodd;clip-rule:evenodd;fill:#E3E7EB;}
	.st1{fill-rule:evenodd;clip-rule:evenodd;fill:#4B4F55;}
	.st2{opacity:0.3;fill-rule:evenodd;clip-rule:evenodd;fill:#4B4F55;}
</style>
		<path class="st0" d="m32.63 56.18v108.06h446.92v-108.06c0-16.34-13.24-29.59-29.59-29.59h-387.75c-16.34 0-29.58 13.24-29.58 29.59"/>
		<path class="st1" d="m449.8 19.31h-387.6c-20.93 0-37.96 16.96-37.96 37.81v397.76c0 20.85 17.03 37.81 37.96 37.81h387.6c20.93 0 37.96-16.96 37.96-37.81v-397.76c0-20.85-17.03-37.81-37.96-37.81zm-408.8 38.71c0-11.64 9.51-21.1 21.2-21.1h387.6c11.69 0 21.2 9.47 21.2 21.1v99.25h-430v-99.25zm408.8 417.98h-387.6c-11.68 0-21.2-9.47-21.2-21.11v-280.92h430v280.91c0 11.65-9.5 21.12-21.2 21.12z"/>
		<path class="st1" d="m199.33 278.89c-3.27-3.27-8.58-3.27-11.85 0l-46.01 46.01c-3.27 3.27-3.27 8.58 0 11.85l46.01 46.01c1.64 1.64 3.78 2.46 5.93 2.46s4.29-0.82 5.93-2.46c3.27-3.27 3.27-8.58 0-11.85l-40.08-40.08 40.08-40.08c3.26-3.28 3.26-8.58-0.01-11.86"/>
		<path class="st1" d="m306.35 278.89c-3.27-3.27-8.58-3.27-11.85 0s-3.27 8.58 0 11.85l40.08 40.08-40.08 40.08c-3.27 3.27-3.27 8.58 0 11.85 1.64 1.64 3.78 2.46 5.93 2.46 2.14 0 4.29-0.82 5.93-2.46l46.02-46.01c1.57-1.57 2.46-3.7 2.46-5.93 0-2.22-0.89-4.36-2.46-5.93l-46.03-45.99z"/>
		<path class="st1" d="m270.38 249.81c-4.37-1.38-9.11 1.07-10.5 5.49l-41.83 133.64c-1.38 4.43 1.07 9.12 5.49 10.5 0.83 0.27 1.68 0.38 2.5 0.38 3.57 0 6.87-2.3 8-5.88l41.83-133.64c1.38-4.4-1.07-9.11-5.49-10.49"/>
		<path class="st1" d="m125.75 95.41c0 10.42-8.45 18.88-18.88 18.88s-18.87-8.45-18.87-18.88c0-10.42 8.44-18.88 18.87-18.88s18.88 8.46 18.88 18.88"/>
		<path class="st2" d="m184.92 95.41c0 10.42-8.45 18.88-18.88 18.88-10.42 0-18.87-8.45-18.87-18.88 0-10.42 8.44-18.88 18.87-18.88 10.43 0.01 18.88 8.46 18.88 18.88"/>
		<path class="st2" d="m244.1 95.41c0 10.42-8.45 18.88-18.88 18.88s-18.87-8.45-18.87-18.88c0-10.42 8.44-18.88 18.87-18.88s18.88 8.46 18.88 18.88"/>
</svg>