<?xml version="1.0" encoding="UTF-8"?>
<svg baseProfile="tiny" version="1.1" viewBox="0 0 1440 453.33" xml:space="preserve" xmlns="http://www.w3.org/2000/svg">
	<path class='text-f' d="m70.38 197.62h-26.71v-27.74h26.71v-50.75c0-21.92 3.08-39.04 15.07-50.69 10.62-10.28 25-14.04 39.39-14.04 9.59 0 19.52 1.71 25.35 3.43l9.28 27.74c-6.51-1.71-26.74-3.08-33.25-3.08-21.23 0-25 14.39-25 32.19v55.2h33.88v27.74h-33.9v122.21h-30.82v-122.21z" fill="#ffffff"/>
	<path class='text-o' d="m273.88 147.55c51.03 0 89.04 38.36 89.04 88.02s-38.01 88.02-89.04 88.02-89.05-38.36-89.05-88.02c0.01-49.66 38.02-88.02 89.05-88.02zm0 147.96c33.56 0 58.22-26.03 58.22-59.93 0-33.91-24.66-59.94-58.22-59.94-33.57 0-58.22 26.03-58.22 59.94 0 33.9 24.66 59.93 58.22 59.93z" fill="#ffffff"/>
	<path class='text-g' d="m416.7 353.39c16.1 10.61 34.59 17.47 53.43 17.47 32.19 0 53.77-19.18 53.77-51.03v-12.33l-0.68-0.35c-11.64 7.88-28.08 13.01-45.89 13.01-45.89 0-82.54-34.59-82.54-84.25 0-47.61 32.53-88.36 87.33-88.36 17.47 0 31.51 4.11 42.81 9.59l29.79-14.41v176.41c0 49.32-32.88 79.8-84.59 79.8-20.55 0-39.39-5.48-53.43-12.67v-32.88zm65.07-60.28c15.41 0 31.85-5.48 42.12-13.7v-92.81c-10.61-6.51-27.06-11.64-42.47-11.64-33.9 0-55.48 26.03-55.48 58.91 0.01 33.89 22.61 59.24 55.83 59.24z" fill="#ffffff"/>
	<path class='text-a' d="m615.68 311.6c-10.96-8.22-17.81-20.89-17.81-37.33 0-18.83 8.9-32.53 22.26-41.1 12.67-8.22 29.8-11.3 47.26-11.3 13.01 0 25 1.71 35.96 4.45v-14.04c0-12.33-3.08-21.58-9.59-27.74-6.51-5.82-16.78-9.25-31.17-9.25-21.23 0-39.04 7.54-51.72 16.78v-30.14c13.01-7.88 31.17-14.38 56.17-14.38 20.55 0 38.36 4.45 50.35 15.41 9.93 8.9 16.78 23.29 16.78 44.18v71.58c0 10.28 3.77 17.81 13.01 17.81 3.43 0 7.19-1.03 9.93-2.4v25.68c-4.11 1.71-9.93 3.08-16.44 3.08-13.36 0-26.03-5.82-32.54-17.81h-0.68c-9.59 8.9-29.11 18.49-51.71 18.49-13.69 0.02-28.76-3.41-40.06-11.97zm87.68-30.13v-31.51c-9.25-2.74-22.26-4.45-32.88-4.45-20.89 0-41.44 6.17-41.44 26.03 0 16.44 14.04 24.66 32.19 24.66 16.1-0.01 31.86-6.52 42.13-14.73z" fill="#ffffff"/>
	<path class='text-t' d="m804.4 151.32v-55.17l30.82-14.41v69.58h41.41v27.74h-41.41v76.37c0 20.89 3.08 40.07 25.35 40.07 8.9 0 18.83-3.08 25.34-7.19v29.11c-6.85 3.43-18.83 6.17-30.48 6.17-12.33 0-27.4-3.08-38.36-15.75-8.22-9.25-12.67-22.95-12.67-46.58v-82.2" fill="#ffffff"/>
	<path class='text-a' d="m949.67 311.6c-10.96-8.22-17.81-20.89-17.81-37.33 0-18.83 8.9-32.53 22.26-41.1 12.67-8.22 29.8-11.3 47.26-11.3 13.01 0 25 1.71 35.96 4.45v-14.04c0-12.33-3.08-21.58-9.59-27.74-6.51-5.82-16.78-9.25-31.17-9.25-21.23 0-39.04 7.54-51.72 16.78v-30.14c13.01-7.88 31.17-14.38 56.17-14.38 20.55 0 38.36 4.45 50.35 15.41 9.93 8.9 16.78 23.29 16.78 44.18v71.58c0 10.28 3.77 17.81 13.01 17.81 3.43 0 7.19-1.03 9.93-2.4v25.68c-4.11 1.71-9.93 3.08-16.44 3.08-13.36 0-26.03-5.82-32.53-17.81h-0.69c-9.59 8.9-29.11 18.49-51.71 18.49-13.69 0.02-28.76-3.41-40.06-11.97zm87.68-30.13v-31.51c-9.25-2.74-22.26-4.45-32.88-4.45-20.89 0-41.44 6.17-41.44 26.03 0 16.44 14.04 24.66 32.19 24.66 16.1-0.01 31.85-6.52 42.13-14.73z" fill="#ffffff"/>
		<path d="m1254.4 104.3s29.7 30.1 7.49 78.36c-13.28 28.84-72.65 38.3-67.29 87.33 5.9 53.93 72.65 58.99 101.77 53.62 27.13-5 71.24-32.17 71.24-84.27-0.01-91.16-113.21-135.04-113.21-135.04z" fill="#2279BF"/>
		<path d="m1259.2 158.04s-20.31 32 2.88 62.76c13.86 18.38 57.38 15.92 61.14 51.47 4.15 39.11-42.36 53-63.8 53.69-19.99 0.65-55.43-11.79-63.47-48.69-14.08-64.57 63.25-119.23 63.25-119.23z" fill="#E89424"/>
		<path d="m1286.9 66.17s18.74 61.59-5.4 114.02c-14.42 31.34-78.93 41.61-73.11 94.88 6.41 58.59 78.93 64.08 110.56 58.26 29.47-5.43 77.4-34.95 77.4-91.55 0-99.05-109.45-175.61-109.45-175.61z" fill="#D64C27"/>
</svg>
