<?xml version="1.0" encoding="UTF-8"?>
<svg enable-background="new 0 0 512 512" version="1.1" viewBox="0 0 512 512" xml:space="preserve" xmlns="http://www.w3.org/2000/svg">
<style type="text/css">
	.icon{fill:#FFFFFF;}
</style>
<path class="icon" d="m171.6 91.35l34.68 49.65c9.82 14.06 7.58 33.24-5.21 44.66l-7.64 6.82c-11.82 10.55-14.78 27.89-7.06 41.72 10.45 18.71 26.76 43.9 45.96 59.56 17.67 14.41 37.54 24.91 52.4 31.63 13.1 5.92 28.5 2.99 38.45-7.38l6.34-6.6c11.67-12.15 30.49-13.89 44.18-4.07l43 30.83c14.92 10.7 18.6 31.33 8.31 46.53l-24.39 36c-7.89 11.64-22.13 17.18-35.82 13.97-46.52-10.89-133.35-21.62-197.86-97.61-69.77-82.2-74.6-152.92-85.68-196.59-3.42-13.48 1.75-27.65 13.03-35.78l29.73-21.44c15.34-11.05 36.76-7.41 47.58 8.1z"/>
</svg>