<?xml version="1.0" encoding="UTF-8"?>
<svg enable-background="new 0 0 512 512" version="1.1" viewBox="0 0 512 512" xml:space="preserve" xmlns="http://www.w3.org/2000/svg">
<style type="text/css">
	.st0{opacity:0.3;fill-rule:evenodd;clip-rule:evenodd;fill:#4B4F55;}
	.st1{fill-rule:evenodd;clip-rule:evenodd;fill:#4B4F55;}
	.st2{fill-rule:evenodd;clip-rule:evenodd;fill:#E3E7EB;}
</style>
		<path class="st0" d="m424.1 310.62c-3.56 0-6.46-2.9-6.46-6.46v-18.13c0-3.43-0.55-6.8-1.62-10.01-1.14-3.38 0.68-7.05 4.06-8.18 3.39-1.16 7.04 0.68 8.18 4.08 1.53 4.54 2.29 9.29 2.29 14.12v18.13c0.01 3.56-2.89 6.45-6.45 6.45zm-21.67-52.22c-0.9 0-1.82-0.19-2.69-0.59-3.89-1.79-8.05-2.69-12.36-2.69h-14.86c-3.56 0-6.46-2.9-6.46-6.46 0-3.57 2.89-6.46 6.46-6.46h14.86c6.18 0 12.15 1.3 17.74 3.86 3.24 1.48 4.67 5.32 3.18 8.57-1.08 2.37-3.42 3.77-5.87 3.77zm-121.08-3.28h-53.18c-3.56 0-6.46-2.9-6.46-6.46 0-3.57 2.89-6.46 6.46-6.46h53.18c3.56 0 6.46 2.9 6.46 6.46s-2.9 6.46-6.46 6.46zm30.39 0c-3.56 0-6.46-2.9-6.46-6.46 0-3.57 2.89-6.46 6.46-6.46h30.39c3.56 0 6.46 2.9 6.46 6.46 0 3.57-2.89 6.46-6.46 6.46h-30.39zm-224.45 53.02c-3.56 0-6.46-2.9-6.46-6.46v-18.13c0-4.83 0.77-9.58 2.29-14.12 1.13-3.39 4.79-5.23 8.18-4.08 3.38 1.13 5.2 4.8 4.06 8.18-1.07 3.22-1.62 6.59-1.62 10.01v18.13c0.01 3.57-2.88 6.47-6.45 6.47zm22.8-49.74c-2.45 0-4.79-1.4-5.87-3.77-1.48-3.25-0.06-7.09 3.18-8.57 5.59-2.56 11.56-3.86 17.74-3.86h14.86c3.56 0 6.46 2.9 6.46 6.46 0 3.57-2.89 6.46-6.46 6.46h-14.86c-4.31 0-8.47 0.9-12.36 2.69-0.88 0.4-1.79 0.59-2.69 0.59m91.17-3.28h-30.39c-3.56 0-6.46-2.9-6.46-6.46 0-3.57 2.89-6.46 6.46-6.46h30.39c3.56 0 6.46 2.9 6.46 6.46s-2.9 6.46-6.46 6.46"/>
		<line class="st1" x1="240.44" x2="270.58" y1="366.12" y2="366.12"/>
		<path class="st1" d="m270.58 372.59h-30.14c-3.57 0-6.46-2.9-6.46-6.46s2.89-6.46 6.46-6.46h30.14c3.56 0 6.46 2.9 6.46 6.46s-2.89 6.46-6.46 6.46"/>
		<path class="st2" d="m347.02 195.63h-183.02c-8.39 0-15.2-6.81-15.2-15.21v-70.86c0-8.4 6.81-15.21 15.2-15.21h183.01c8.4 0 15.2 6.81 15.2 15.21v70.86c0 8.41-6.8 15.21-15.19 15.21"/>
		<path class="st1" d="m88.92 308.15c-31.45 0-57.05 25.61-57.05 57.1v1.75c0 31.49 25.6 57.1 57.05 57.1 31.46 0 57.06-25.61 57.06-57.1v-1.74c0-31.5-25.59-57.11-57.06-57.11zm44.15 58.85c0 24.36-19.8 44.17-44.14 44.17s-44.14-19.82-44.14-44.17v-1.74c0-24.36 19.8-44.17 44.14-44.17s44.14 19.82 44.14 44.17v1.74z"/>
		<path class="st1" d="m88.93 344.58c-3.56 0-6.46 2.9-6.46 6.46v30.17c0 3.57 2.89 6.46 6.46 6.46 3.56 0 6.46-2.89 6.46-6.46v-30.17c0-3.57-2.9-6.46-6.46-6.46"/>
		<path class="st1" d="m423.07 308.15c-31.45 0-57.05 25.61-57.05 57.1v1.75c0 31.49 25.6 57.1 57.05 57.1 31.46 0 57.06-25.61 57.06-57.1v-1.74c0-31.5-25.6-57.11-57.06-57.11zm44.14 58.85c0 24.36-19.8 44.17-44.14 44.17s-44.14-19.82-44.14-44.17v-1.74c0-24.36 19.8-44.17 44.14-44.17s44.14 19.82 44.14 44.17v1.74z"/>
		<path class="st1" d="m423.07 344.58c-3.56 0-6.46 2.9-6.46 6.46v30.17c0 3.57 2.89 6.46 6.46 6.46s6.46-2.89 6.46-6.46v-30.17c0-3.57-2.9-6.46-6.46-6.46"/>
		<path class="st1" d="m368.67 109.58c0-11.95-9.72-21.67-21.65-21.67h-183.01c-11.94 0-21.65 9.72-21.65 21.67v70.85c0 11.95 9.71 21.67 21.65 21.67h85.27v106.06h-21.34c-16.13 0-29.25 13.13-29.25 29.28v57.39c0 16.14 13.12 29.28 29.25 29.28h55.61c16.13 0 29.25-13.13 29.25-29.28v-57.39c0-16.14-13.12-29.28-29.25-29.28h-21.35v-106.06h84.82c11.94 0 21.65-9.73 21.65-21.67v-70.85zm-85.13 211.5c9 0 16.34 7.33 16.34 16.35v57.39c0 9.02-7.33 16.35-16.34 16.35h-55.61c-9.01 0-16.34-7.33-16.34-16.35v-57.39c0-9.02 7.32-16.35 16.34-16.35h55.61zm72.21-140.65c0 4.82-3.92 8.74-8.74 8.74h-183c-4.82 0-8.74-3.92-8.74-8.74v-70.85c0-4.83 3.91-8.74 8.74-8.74h183.01c4.82 0 8.74 3.92 8.74 8.74v70.85z"/>
		<path class="st1" d="m284 138.54h-56.98c-3.56 0-6.46 2.9-6.46 6.46 0 3.57 2.89 6.46 6.46 6.46h56.98c3.56 0 6.46-2.9 6.46-6.46 0-3.57-2.89-6.46-6.46-6.46"/>
</svg>