<?xml version="1.0" encoding="utf-8"?>
<!-- Generator: Adobe Illustrator 23.0.2, SVG Export Plug-In . SVG Version: 6.00 Build 0)  -->
<svg version="1.1" baseProfile="tiny" id="Layer_1" xmlns="http://www.w3.org/2000/svg" xmlns:xlink="http://www.w3.org/1999/xlink"
	 x="0px" y="0px" viewBox="0 0 1024 1024" xml:space="preserve">
<path fill="#2279BF" d="M374.48,174.16c0,0,103.72,105.12,26.16,273.66c-46.38,100.72-253.71,133.75-235,304.98
	c20.6,188.34,253.71,206.01,355.41,187.26c94.75-17.46,248.79-112.35,248.79-294.29C769.81,327.4,374.48,174.16,374.48,174.16z"/>
<path fill="#E89424" d="M391.24,361.84c0,0-70.93,111.75,10.06,219.18c48.4,64.19,200.39,55.6,213.52,179.75
	c14.49,136.58-147.93,185.09-222.81,187.5c-69.81,2.27-193.58-41.17-221.66-170.04C121.19,552.72,391.24,361.84,391.24,361.84
	L391.24,361.84z"/>
<path fill="#D64C27" d="M487.98,41c0,0,65.45,215.09-18.86,398.19C418.76,548.64,193.48,584.5,213.8,770.54
	C236.19,975.15,489.45,994.32,599.91,974c102.92-18.96,270.3-122.06,270.3-319.72C870.21,308.37,487.98,41,487.98,41L487.98,41z"/>
</svg>
