<?xml version="1.0" encoding="UTF-8"?>
<svg enable-background="new 0 0 512 512" version="1.1" viewBox="0 0 512 512" xml:space="preserve" xmlns="http://www.w3.org/2000/svg">
<style type="text/css">
	.st0{fill-rule:evenodd;clip-rule:evenodd;fill:#E3E7EB;}
	.st1{fill-rule:evenodd;clip-rule:evenodd;fill:#4B4F55;}
	.st2{opacity:0.3;fill-rule:evenodd;clip-rule:evenodd;fill:#4B4F55;}
</style>
		<path class="st0" d="m211.95 393.65h-89.83v-335.23c0-13.69 11.46-24.78 25.6-24.78h38.64c14.14 0 25.6 11.09 25.6 24.78v335.23z"/>
		<path class="st1" d="m183.65 24.33h-35.97c-17.61 0-31.93 14.89-31.93 33.2v30.76c-32.71 0.07-33.74 1.06-35.76 3.13-1.54 1.59-2.42 3.77-2.42 6.02v168.76c0 4.65 3.63 8.42 8.1 8.42 4.48 0 8.1-3.78 8.1-8.42v-160.81c5.13-0.11 12.81-0.15 21.97-0.15v287.52c0 0.23 0.1 0.41 0.12 0.63-0.02 0.22-0.12 0.4-0.12 0.62v20.64c0 7.45 1.93 14.8 5.57 21.22 0.21 0.37 0.44 0.72 0.7 1.05l37.38 47.64c1.53 1.96 3.84 3.1 6.27 3.1 2.44 0 4.74-1.14 6.28-3.1l37.37-47.64c0.27-0.33 0.5-0.68 0.71-1.05 3.64-6.43 5.57-13.77 5.57-21.22v-20.64c0-0.23-0.1-0.41-0.12-0.62 0.02-0.23 0.12-0.41 0.12-0.63v-335.23c-0.01-18.3-14.33-33.2-31.94-33.2zm-35.97 16.85h35.97c8.67 0 15.73 7.33 15.73 16.35v31.4c-29.16-0.33-51.01-0.54-67.42-0.6v-30.8c-0.01-9.02 7.05-16.35 15.72-16.35zm51.7 64.59v278.56h-67.42v-279.06c21.35 0.07 46.6 0.28 67.42 0.5zm0 308.89c0 4.25-1.05 8.44-3.04 12.16l-30.68 39.1-30.66-39.1c-1.99-3.72-3.04-7.91-3.04-12.16v-12.22h67.42v12.22z"/>
		<path class="st2" d="m395.52 392.53h-9.2c-4.42 0-8.02-3.78-8.02-8.42 0-4.66 3.59-8.42 8.02-8.42h9.2c7.23 0 13.88-3.48 18.25-9.54 2.68-3.71 7.71-4.42 11.23-1.63 3.53 2.8 4.23 8.09 1.56 11.8-7.44 10.31-18.74 16.21-31.04 16.21m-46.92 0h-37.73c-4.42 0-8.02-3.78-8.02-8.42 0-4.66 3.59-8.42 8.02-8.42h37.73c4.43 0 8.02 3.77 8.02 8.42s-3.58 8.42-8.02 8.42m-75.45 0h-37.73c-4.42 0-8.02-3.78-8.02-8.42 0-4.66 3.59-8.42 8.02-8.42h37.73c4.43 0 8.02 3.77 8.02 8.42s-3.59 8.42-8.02 8.42m153.26-51.07c-4.42 0-8.02-3.78-8.02-8.42v-39.64c0-4.65 3.59-8.42 8.02-8.42s8.02 3.78 8.02 8.42v39.64c0 4.64-3.58 8.42-8.02 8.42m0-79.28c-4.42 0-8.02-3.78-8.02-8.42v-39.64c0-4.65 3.59-8.42 8.02-8.42s8.02 3.78 8.02 8.42v39.64c0 4.64-3.58 8.42-8.02 8.42m0-79.28c-4.42 0-8.02-3.78-8.02-8.42v-39.64c0-4.65 3.59-8.42 8.02-8.42s8.02 3.78 8.02 8.42v39.64c0 4.64-3.58 8.42-8.02 8.42m-15.51-73.35c-1.35 0-2.73-0.37-3.99-1.13-3.44-2.08-7.38-3.18-11.38-3.18h-21.62c-4.42 0-8.02-3.78-8.02-8.42 0-4.65 3.59-8.42 8.02-8.42h21.62c6.81 0 13.52 1.87 19.39 5.43 3.83 2.32 5.15 7.47 2.94 11.51-1.49 2.7-4.18 4.21-6.96 4.21m-74.72-4.31h-37.73c-4.42 0-8.02-3.78-8.02-8.42 0-4.65 3.59-8.42 8.02-8.42h37.73c4.42 0 8.02 3.78 8.02 8.42 0 4.65-3.6 8.42-8.02 8.42m-75.45 0h-25.3c-4.42 0-8.02-3.78-8.02-8.42 0-4.65 3.59-8.42 8.02-8.42h25.3c4.42 0 8.02 3.78 8.02 8.42 0 4.65-3.6 8.42-8.02 8.42"/>
		<path class="st1" d="m262.94 182.47h102.46c4.37 0 7.92-3.78 7.92-8.42s-3.55-8.42-7.92-8.42h-102.46c-4.37 0-7.92 3.78-7.92 8.42s3.55 8.42 7.92 8.42"/>
		<path class="st1" d="m365.4 234.99h-102.46c-4.37 0-7.92 3.78-7.92 8.42s3.55 8.42 7.92 8.42h102.46c4.37 0 7.92-3.78 7.92-8.42s-3.55-8.42-7.92-8.42"/>
		<path class="st1" d="m365.4 304.36h-102.46c-4.37 0-7.92 3.78-7.92 8.42 0 4.65 3.55 8.42 7.92 8.42h102.46c4.37 0 7.92-3.78 7.92-8.42s-3.55-8.42-7.92-8.42"/>
</svg>